<?xml version="1.0" encoding="UTF-8"?>
<svg width="32px" height="32px" viewBox="0 0 32 32" version="1.1" xmlns="http://www.w3.org/2000/svg" xmlns:xlink="http://www.w3.org/1999/xlink">
    <title>My Booksmarks</title>
    <g id="My-Booksmarks" stroke="none" stroke-width="1" fill="none" fill-rule="evenodd">
        <rect fill="#FFFFFF" x="0" y="0" width="32" height="32"></rect>
        <g id="Group" transform="translate(4.135318, 0.631166)" stroke="#512D6D" stroke-linecap="round" stroke-linejoin="round" stroke-width="0.5">
            <g id="Add-Bookmark-Icon" transform="translate(5.583380, 0.000000)">
                <path d="M18.145984,26.084852 L9.07194293,20.414232 L0,26.084852 L0,1.134124 C0,0.50776461 0.50776461,0 1.134124,0 L17.01186,0 C17.6382194,0 18.145984,0.50776461 18.145984,1.134124 L18.145984,26.084852 Z" id="Path"></path>
            </g>
            <path d="M18.145984,30.7376684 L9.07194293,25.0670484 L0,30.7376684 L0,5.78694041 C0,5.16058102 0.50776461,4.65281641 1.134124,4.65281641 L17.01186,4.65281641 C17.6382194,4.65281641 18.145984,5.16058102 18.145984,5.78694041 L18.145984,30.7376684 Z" id="Path" fill="#FFFFFF"></path>
        </g>
        <g id="Add-Bookmark-Icon" transform="translate(0.000000, 4.652816)"></g>
    </g>
</svg>