<svg width="44" height="44" viewBox="0 0 44 44" fill="none" xmlns="http://www.w3.org/2000/svg">
<path d="M43.1097 15.5908L22.4847 4.59077C22.3358 4.51044 22.1692 4.46838 22 4.46838C21.8308 4.46838 21.6642 4.51044 21.5153 4.59077L0.890319 15.5908C0.725753 15.6788 0.588178 15.8099 0.492262 15.9701C0.396347 16.1302 0.345688 16.3133 0.345688 16.5C0.345688 16.6866 0.396347 16.8698 0.492262 17.0299C0.588178 17.19 0.725753 17.3211 0.890319 17.4092L5.84376 20.0526V28.5811C5.84361 29.1718 6.06079 29.742 6.45391 30.183C8.66594 32.6459 13.628 36.7812 22 36.7812C24.948 36.8089 27.8712 36.24 30.5938 35.1089V41.25C30.5938 41.5235 30.7024 41.7858 30.8958 41.9792C31.0892 42.1726 31.3515 42.2812 31.625 42.2812C31.8985 42.2812 32.1608 42.1726 32.3542 41.9792C32.5476 41.7858 32.6563 41.5235 32.6563 41.25V34.0914C34.4866 33.0606 36.138 31.7401 37.5461 30.1812C37.9401 29.7415 38.1574 29.1715 38.1563 28.5811V20.0526L43.1097 17.4092C43.2743 17.3211 43.4118 17.19 43.5078 17.0299C43.6037 16.8698 43.6543 16.6866 43.6543 16.5C43.6543 16.3133 43.6037 16.1302 43.5078 15.9701C43.4118 15.8099 43.2743 15.6788 43.1097 15.5908ZM22 34.7187C14.4375 34.7187 9.96876 31.0131 7.98876 28.8045C7.93551 28.7423 7.90625 28.663 7.90626 28.5811V21.1526L21.5153 28.4092C21.6645 28.4887 21.831 28.5302 22 28.5302C22.169 28.5302 22.3355 28.4887 22.4847 28.4092L30.5938 24.0848V32.8505C28.3594 33.9195 25.5149 34.7187 22 34.7187ZM36.0938 28.5811C36.0938 28.663 36.0645 28.7423 36.0113 28.8045C35.0208 29.9018 33.8932 30.8671 32.6563 31.6766V22.9848L36.0938 21.1526V28.5811ZM32.2867 20.8467C32.2336 20.8005 32.176 20.7596 32.1149 20.7247L22.4899 15.5925C22.2501 15.4773 21.9751 15.4593 21.7223 15.5421C21.4695 15.6249 21.2585 15.8022 21.1334 16.037C21.0082 16.2717 20.9786 16.5457 21.0508 16.8018C21.1229 17.0578 21.2912 17.276 21.5205 17.4109L30.1211 22L22 26.3312L3.56641 16.5L22 6.66874L40.4336 16.5L32.2867 20.8467Z" fill="#46166B"/>
</svg>
