<svg width="20" height="12" viewBox="0 0 20 12" fill="none" xmlns="http://www.w3.org/2000/svg">
<path d="M10.6431 0.293252L19.7336 10.2921C19.8181 10.385 19.8851 10.4953 19.9308 10.6167C19.9765 10.7381 20 10.8682 20 10.9996C20 11.1309 19.9765 11.261 19.9308 11.3824C19.8851 11.5038 19.8181 11.6141 19.7336 11.707C19.6491 11.7999 19.5489 11.8736 19.4385 11.9238C19.3282 11.9741 19.2099 12 19.0904 12C18.971 12 18.8527 11.9741 18.7424 11.9238C18.632 11.8736 18.5318 11.7999 18.4473 11.707L10 2.41427L1.5527 11.707C1.38213 11.8946 1.15078 12 0.90955 12C0.668323 12 0.436975 11.8946 0.266401 11.707C0.0958273 11.5194 1.79729e-09 11.2649 0 10.9996C-1.79729e-09 10.7342 0.0958273 10.4798 0.266401 10.2921L9.35685 0.293252C9.44127 0.200286 9.54153 0.126535 9.65189 0.0762161C9.76225 0.0258974 9.88054 -4.29153e-07 10 -4.29153e-07C10.1195 -4.29153e-07 10.2378 0.0258974 10.3481 0.0762161C10.4585 0.126535 10.5587 0.200286 10.6431 0.293252Z" fill="white"/>
</svg>
