<?xml version="1.0" encoding="UTF-8"?>
<svg width="32px" height="32px" viewBox="0 0 32 32" version="1.1" xmlns="http://www.w3.org/2000/svg" xmlns:xlink="http://www.w3.org/1999/xlink">
    <!-- Generator: Sketch 51.1 (57501) - http://www.bohemiancoding.com/sketch -->
    <title>Fill 209</title>
    <desc>Created with Sketch.</desc>
    <defs></defs>
    <g id="Social-Icons" stroke="none" stroke-width="1" fill="none" fill-rule="evenodd">
        <g transform="translate(-435.000000, -236.000000)" fill="#7229D1" id="Fill-209">
            <path d="M459,259.985 L455.685,259.985 L455.685,254.797 C455.685,253.56 455.663,251.969 453.962,251.969 C452.237,251.969 451.974,253.317 451.974,254.709 L451.974,259.985 L448.662,259.985 L448.662,249.317 L451.84,249.317 L451.84,250.776 L451.886,250.776 C452.328,249.937 453.41,249.052 455.023,249.052 C458.38,249.052 459,251.261 459,254.134 L459,259.985 Z M444.924,247.86 C443.859,247.86 443,246.998 443,245.937 C443,244.876 443.859,244.014 444.924,244.014 C445.984,244.014 446.845,244.876 446.845,245.937 C446.845,246.998 445.984,247.86 444.924,247.86 L444.924,247.86 Z M446.582,259.985 L443.263,259.985 L443.263,249.317 L446.582,249.317 L446.582,259.985 Z M451,236 C442.163,236 435,243.163 435,252 C435,260.836 442.163,268 451,268 C459.837,268 467,260.836 467,252 C467,243.163 459.837,236 451,236 L451,236 Z"></path>
        </g>
    </g>
</svg>