<?xml version="1.0" encoding="UTF-8"?>
<svg width="32px" height="32px" viewBox="0 0 32 32" version="1.1" xmlns="http://www.w3.org/2000/svg" xmlns:xlink="http://www.w3.org/1999/xlink">
    <!-- Generator: Sketch 51.1 (57501) - http://www.bohemiancoding.com/sketch -->
    <title>Group 5</title>
    <desc>Created with Sketch.</desc>
    <defs></defs>
    <g id="Social-Icons" stroke="none" stroke-width="1" fill="none" fill-rule="evenodd">
        <g transform="translate(-522.000000, -236.000000)" fill="#7229D1" id="Group-5">
            <g transform="translate(522.000000, 236.000000)">
                <path d="M19,15.9995113 C19,14.3428897 17.6564836,13 16,13 C14.3435164,13 13,14.3428897 13,15.9995113 C13,17.6571103 14.3435164,19 16,19 C17.6564836,19 19,17.6571103 19,15.9995113 Z" id="Fill-202"></path>
                <path d="M20.4393593,13 L22.5606407,13 C22.8028768,13 23,12.8033432 23,12.5614553 L23,10.4385447 C23,10.1966568 22.8028768,10 22.5606407,10 L20.4393593,10 C20.1971232,10 20,10.1966568 20,10.4385447 L20,12.5614553 C20,12.8033432 20.1971232,13 20.4393593,13" id="Fill-203"></path>
                <path d="M24,22.102 C24,23.15 23.149,24 22.098,24 L9.902,24 C8.852,24 8,23.15 8,22.102 L8,9.897 C8,8.849 8.852,8 9.902,8 L22.098,8 C23.149,8 24,8.849 24,9.897 L24,22.102 Z M16,0 C7.163,0 0,7.163 0,16 C0,24.836 7.163,32 16,32 C24.837,32 32,24.836 32,16 C32,7.163 24.837,0 16,0 L16,0 Z" id="Fill-204"></path>
                <path d="M20.716847,16.2137745 C20.716847,18.7443619 18.6011953,20.8041864 16,20.8041864 C13.3988047,20.8041864 11.283153,18.7443619 11.283153,16.2137745 C11.283153,15.7940581 11.3413019,15.3866307 11.4508157,15 L10,15 L10,21.5774477 C10,21.8109386 10.1938298,22 10.4332095,22 L21.5658214,22 C21.8061702,22 22,21.8109386 22,21.5774477 L22,15 L20.5491843,15 C20.6586981,15.3866307 20.716847,15.7940581 20.716847,16.2137745" id="Fill-205"></path>
            </g>
        </g>
    </g>
</svg>