<?xml version="1.0" encoding="UTF-8"?>
<svg width="32px" height="32px" viewBox="0 0 32 32" version="1.1" xmlns="http://www.w3.org/2000/svg" xmlns:xlink="http://www.w3.org/1999/xlink">
    <!-- Generator: Sketch 51.1 (57501) - http://www.bohemiancoding.com/sketch -->
    <title>Fill 209</title>
    <desc>Created with Sketch.</desc>
    <defs></defs>
    <g id="Social-Icons" stroke="none" stroke-width="1" fill="none" fill-rule="evenodd">
        <g transform="translate(-435.000000, -287.000000)" fill="#FFFFFF" id="Fill-209">
            <path d="M459,310.985 L455.685,310.985 L455.685,305.797 C455.685,304.56 455.663,302.969 453.962,302.969 C452.237,302.969 451.974,304.317 451.974,305.709 L451.974,310.985 L448.662,310.985 L448.662,300.317 L451.84,300.317 L451.84,301.776 L451.886,301.776 C452.328,300.937 453.41,300.052 455.023,300.052 C458.38,300.052 459,302.261 459,305.134 L459,310.985 Z M444.924,298.86 C443.859,298.86 443,297.998 443,296.937 C443,295.876 443.859,295.014 444.924,295.014 C445.984,295.014 446.845,295.876 446.845,296.937 C446.845,297.998 445.984,298.86 444.924,298.86 L444.924,298.86 Z M446.582,310.985 L443.263,310.985 L443.263,300.317 L446.582,300.317 L446.582,310.985 Z M451,287 C442.163,287 435,294.163 435,303 C435,311.836 442.163,319 451,319 C459.837,319 467,311.836 467,303 C467,294.163 459.837,287 451,287 L451,287 Z"></path>
        </g>
    </g>
</svg>