<?xml version="1.0" encoding="UTF-8"?>
<svg width="32px" height="32px" viewBox="0 0 32 32" version="1.1" xmlns="http://www.w3.org/2000/svg" xmlns:xlink="http://www.w3.org/1999/xlink">
    <!-- Generator: Sketch 51.1 (57501) - http://www.bohemiancoding.com/sketch -->
    <title>Group 3</title>
    <desc>Created with Sketch.</desc>
    <defs></defs>
    <g id="Social-Icons" stroke="none" stroke-width="1" fill="none" fill-rule="evenodd">
        <g transform="translate(-481.000000, -180.000000)" fill="#9073A6" id="Group-3">
            <g transform="translate(481.000000, 180.000000)">
                <g id="Group">
                    <polygon id="Fill-208" points="15.001 17.496 19.324 15.256 15 13"></polygon>
                    <path d="M24,16.604 C24,17.899 23.84,19.194 23.84,19.194 C23.84,19.194 23.684,20.296 23.204,20.782 C22.596,21.419 21.914,21.422 21.601,21.459 C19.362,21.621 16,21.626 16,21.626 C16,21.626 11.84,21.588 10.56,21.466 C10.204,21.399 9.404,21.419 8.796,20.782 C8.316,20.296 8.16,19.194 8.16,19.194 C8.16,19.194 8,17.899 8,16.604 L8,15.39 C8,14.095 8.16,12.801 8.16,12.801 C8.16,12.801 8.316,11.698 8.796,11.212 C9.404,10.575 10.086,10.572 10.399,10.535 C12.638,10.373 15.997,10.373 15.997,10.373 L16.003,10.373 C16.003,10.373 19.362,10.373 21.601,10.535 C21.914,10.572 22.596,10.575 23.204,11.212 C23.684,11.698 23.84,12.801 23.84,12.801 C23.84,12.801 24,14.095 24,15.39 L24,16.604 Z M16,0 C7.163,0 0,7.163 0,16 C0,24.836 7.163,32 16,32 C24.837,32 32,24.836 32,16 C32,7.163 24.837,0 16,0 L16,0 Z" id="Fill-207"></path>
                </g>
            </g>
        </g>
    </g>
</svg>