<?xml version="1.0" encoding="UTF-8"?>
<svg width="58px" height="58px" viewBox="0 0 58 58" version="1.1" xmlns="http://www.w3.org/2000/svg"
     xmlns:xlink="http://www.w3.org/1999/xlink">
    <!-- Generator: Sketch 51.3 (57544) - http://www.bohemiancoding.com/sketch -->
    <title>Fill 8</title>
    <desc>Created with Sketch.</desc>
    <defs></defs>
    <g id="Global" stroke="none" stroke-width="1" fill="none" fill-rule="evenodd">
        <g id="Icons" transform="translate(-768.000000, -316.000000)" fill="#9073A6">
            <g id="Column-3-Copy" transform="translate(763.000000, 49.000000)">
                <g id="Social-Media" transform="translate(1.000000, 200.895000)">
                    <path d="M46.2344,88.2949 L46.2344,89.1729 C46.1784,99.8639 37.4654,108.4869 26.7724,108.4319 C23.1524,108.4119 19.6104,107.3789 16.5474,105.4479 C17.0884,105.5099 17.6304,105.5409 18.1744,105.5389 C21.2334,105.5459 24.2084,104.5239 26.6154,102.6349 C23.7094,102.5829 21.1574,100.6889 20.2644,97.9239 C21.2844,98.1189 22.3354,98.0789 23.3364,97.8079 C20.1614,97.1859 17.8654,94.4089 17.8504,91.1729 L17.8504,91.0569 C18.7934,91.5809 19.8454,91.8729 20.9224,91.9089 C17.9584,89.9169 17.0394,85.9699 18.8194,82.8729 C22.2864,87.0849 27.3754,89.6319 32.8244,89.8819 C31.9224,86.2419 34.1424,82.5619 37.7824,81.6599 C40.2064,81.0609 42.7624,81.8389 44.4404,83.6869 C45.9374,83.4119 47.3784,82.8889 48.7004,82.1369 C48.1944,83.7099 47.1344,85.0449 45.7184,85.8939 C47.0544,85.7309 48.3604,85.3689 49.5904,84.8219 C48.6844,86.1679 47.5484,87.3439 46.2344,88.2949 M33.0684,66.6489 C17.3854,66.6489 4.6724,79.3619 4.6724,95.0449 C4.6724,110.7279 17.3854,123.4409 33.0684,123.4409 C48.7524,123.4409 61.4654,110.7279 61.4654,95.0449 C61.4654,79.3619 48.7524,66.6489 33.0684,66.6489"
                          id="Fill-8"></path>
                </g>
            </g>
        </g>
    </g>
</svg>
