<?xml version="1.0" encoding="UTF-8"?>
<svg width="25px" height="25px" viewBox="0 0 25 25" version="1.1" xmlns="http://www.w3.org/2000/svg" xmlns:xlink="http://www.w3.org/1999/xlink">
    <title>Icons / icon-internal-site-yellow</title>
    <defs>
        <polygon id="path-1" points="0.000214285714 0.351857143 19.1562857 0.351857143 19.1562857 20 0.000214285714 20"></polygon>
        <polygon id="path-3" points="0.199105308 3.57142857e-05 17.8571429 3.57142857e-05 17.8571429 17.9596786 0.199105308 17.9596786"></polygon>
    </defs>
    <g id="Icons" stroke="none" stroke-width="1" fill="none" fill-rule="evenodd">
        <g transform="translate(-675.000000, -790.000000)" id="Icons-/-Tools-and-Resources---Internal-site-v2">
            <g transform="translate(675.000000, 790.000000)">
                <g id="internal-site">
                    <g id="Group-3" transform="translate(0.000000, 5.000000)">
                        <mask id="mask-2" fill="white">
                            <use xlink:href="#path-1"></use>
                        </mask>
                        <g id="Clip-2"></g>
                        <path d="M17.1698571,14.8711429 C16.5073571,16.744 14.7245,18.0897143 12.6295,18.0897143 L6.72985714,18.0897143 C4.07092857,18.0897143 1.90807143,15.9243571 1.90807143,13.2625714 L1.90807143,6.96292857 C1.90807143,4.75114286 3.40307143,2.88614286 5.43414286,2.319 L5.42557143,0.351857143 C2.33307143,0.959714286 0.000214285714,3.68864286 0.000214285714,6.96292857 L0.000214285714,13.2625714 C0.000214285714,16.9836429 3.01271429,20.0000714 6.72985714,20.0000714 L12.6295,20.0000714 C15.7895,20.0000714 18.4334286,17.8175714 19.1562857,14.8779286 L17.1698571,14.8711429 Z" id="Fill-1" fill="#F9A534" mask="url(#mask-2)"></path>
                    </g>
                    <g id="Group-8" transform="translate(7.142857, 0.000000)">
                        <mask id="mask-4" fill="white">
                            <use xlink:href="#path-3"></use>
                        </mask>
                        <g id="Clip-7"></g>
                        <path d="M11.7544643,3.57142857e-05 C11.2416071,3.57142857e-05 10.7505357,0.206464286 10.3919643,0.572892857 L5.14053571,5.93682143 L3.46946429,4.22967857 C3.10339286,3.85575 2.60982143,3.65646429 2.10625,3.65646429 C1.86339286,3.65646429 1.61803571,3.70325 1.38446429,3.79896429 C0.66625,4.09289286 0.198035714,4.79289286 0.199105308,5.56967857 L0.21375,16.0453929 C0.214821429,17.0986071 1.06803571,17.9521786 2.12017857,17.9528929 L12.3680357,17.9596786 L12.3694643,17.9596786 C13.1373214,17.9596786 13.8301786,17.4986071 14.1280357,16.7896786 C14.4258929,16.0803929 14.2698214,15.2614643 13.7319643,14.7121786 L12.0069643,12.9503929 L17.3119643,7.53182143 C18.0391071,6.78932143 18.0391071,5.60039286 17.3119643,4.85789286 L13.1169643,0.572892857 C12.7583929,0.206464286 12.2673214,3.57142857e-05 11.7544643,3.57142857e-05 M11.7544643,1.91039286 L15.9491071,6.19503571 L9.33553571,12.9503929 L12.3694643,16.0493214 L2.12125,16.0425357 L2.10696429,5.56682143 L5.14053571,8.66575 L11.7544643,1.91039286" id="Fill-6" fill="#46266A" mask="url(#mask-4)"></path>
                    </g>
                </g>
            </g>
        </g>
    </g>
</svg>