<?xml version="1.0" encoding="UTF-8"?>
<svg width="32px" height="32px" viewBox="0 0 32 32" version="1.1" xmlns="http://www.w3.org/2000/svg" xmlns:xlink="http://www.w3.org/1999/xlink">
    <!-- Generator: Sketch 51.1 (57501) - http://www.bohemiancoding.com/sketch -->
    <title>Fill 209</title>
    <desc>Created with Sketch.</desc>
    <defs></defs>
    <g id="Social-Icons" stroke="none" stroke-width="1" fill="none" fill-rule="evenodd">
        <g transform="translate(-435.000000, -180.000000)" fill="#9073A6" id="Fill-209">
            <path d="M459,203.985 L455.685,203.985 L455.685,198.797 C455.685,197.56 455.663,195.969 453.962,195.969 C452.237,195.969 451.974,197.317 451.974,198.709 L451.974,203.985 L448.662,203.985 L448.662,193.317 L451.84,193.317 L451.84,194.776 L451.886,194.776 C452.328,193.937 453.41,193.052 455.023,193.052 C458.38,193.052 459,195.261 459,198.134 L459,203.985 Z M444.924,191.86 C443.859,191.86 443,190.998 443,189.937 C443,188.876 443.859,188.014 444.924,188.014 C445.984,188.014 446.845,188.876 446.845,189.937 C446.845,190.998 445.984,191.86 444.924,191.86 L444.924,191.86 Z M446.582,203.985 L443.263,203.985 L443.263,193.317 L446.582,193.317 L446.582,203.985 Z M451,180 C442.163,180 435,187.163 435,196 C435,204.836 442.163,212 451,212 C459.837,212 467,204.836 467,196 C467,187.163 459.837,180 451,180 L451,180 Z"></path>
        </g>
    </g>
</svg>