<svg width="12" height="12" viewBox="0 0 12 12" fill="none" xmlns="http://www.w3.org/2000/svg">
<path d="M11.5595 10.9408L8.82133 8.20318C9.61497 7.25036 10.0107 6.02825 9.92626 4.79108C9.84179 3.55391 9.28361 2.39693 8.36783 1.56082C7.45205 0.724714 6.24918 0.273852 5.00945 0.302026C3.76972 0.330201 2.58858 0.835244 1.71173 1.71209C0.834878 2.58894 0.329835 3.77009 0.30166 5.00982C0.273485 6.24955 0.724348 7.45242 1.56046 8.3682C2.39656 9.28398 3.55355 9.84216 4.79072 9.92662C6.02789 10.0111 7.25 9.61534 8.20282 8.8217L10.9405 11.5599C10.9811 11.6005 11.0294 11.6328 11.0825 11.6548C11.1356 11.6768 11.1925 11.6881 11.25 11.6881C11.3075 11.6881 11.3644 11.6768 11.4175 11.6548C11.4706 11.6328 11.5189 11.6005 11.5595 11.5599C11.6002 11.5193 11.6324 11.471 11.6544 11.4179C11.6764 11.3648 11.6877 11.3079 11.6877 11.2504C11.6877 11.1929 11.6764 11.136 11.6544 11.0829C11.6324 11.0297 11.6002 10.9815 11.5595 10.9408ZM1.1875 5.12537C1.1875 4.3466 1.41843 3.58533 1.85109 2.93781C2.28375 2.29029 2.8987 1.78561 3.61819 1.48759C4.33767 1.18957 5.12937 1.1116 5.89317 1.26353C6.65697 1.41546 7.35857 1.79047 7.90924 2.34114C8.4599 2.89181 8.83492 3.5934 8.98685 4.3572C9.13877 5.121 9.0608 5.9127 8.76278 6.63218C8.46476 7.35167 7.96008 7.96662 7.31256 8.39928C6.66504 8.83194 5.90377 9.06287 5.125 9.06287C4.08107 9.06171 3.08022 8.6465 2.34205 7.90832C1.60388 7.17015 1.18866 6.1693 1.1875 5.12537Z" fill="#7F7F7F"/>
</svg>
