<?xml version="1.0" encoding="UTF-8"?>
<svg width="32px" height="32px" viewBox="0 0 32 32" version="1.1" xmlns="http://www.w3.org/2000/svg" xmlns:xlink="http://www.w3.org/1999/xlink">
    <!-- Generator: Sketch 51.1 (57501) - http://www.bohemiancoding.com/sketch -->
    <title>Fill 183</title>
    <desc>Created with Sketch.</desc>
    <defs></defs>
    <g id="Social-Icons" stroke="none" stroke-width="1" fill="none" fill-rule="evenodd">
        <g transform="translate(-295.000000, -287.000000)" fill="#FFFFFF" id="Fill-183">
            <path d="M315.155,297.656 L313.649,297.657 C312.468,297.657 312.239,298.218 312.239,299.041 L312.239,300.857 L315.056,300.857 L314.689,303.702 L312.239,303.702 L312.239,311 L309.302,311 L309.302,303.702 L306.846,303.702 L306.846,300.857 L309.302,300.857 L309.302,298.76 C309.302,296.325 310.789,295 312.96,295 C314,295 314.894,295.077 315.155,295.112 L315.155,297.656 Z M295,303 C295,311.836 302.164,319 311,319 C319.837,319 327,311.836 327,303 C327,294.163 319.837,287 311,287 C302.164,287 295,294.163 295,303 Z"></path>
        </g>
    </g>
</svg>