<?xml version="1.0" encoding="UTF-8"?>
<svg width="32px" height="32px" viewBox="0 0 32 32" version="1.1" xmlns="http://www.w3.org/2000/svg" xmlns:xlink="http://www.w3.org/1999/xlink">
    <!-- Generator: Sketch 51.1 (57501) - http://www.bohemiancoding.com/sketch -->
    <title>Fill 183</title>
    <desc>Created with Sketch.</desc>
    <defs></defs>
    <g id="Social-Icons" stroke="none" stroke-width="1" fill="none" fill-rule="evenodd">
        <g transform="translate(-295.000000, -236.000000)" fill="#7229D1" id="Fill-183">
            <path d="M315.155,246.656 L313.649,246.657 C312.468,246.657 312.239,247.218 312.239,248.041 L312.239,249.857 L315.056,249.857 L314.689,252.702 L312.239,252.702 L312.239,260 L309.302,260 L309.302,252.702 L306.846,252.702 L306.846,249.857 L309.302,249.857 L309.302,247.76 C309.302,245.325 310.789,244 312.96,244 C314,244 314.894,244.077 315.155,244.112 L315.155,246.656 Z M311,236 C302.164,236 295,243.163 295,252 C295,260.836 302.164,268 311,268 C319.837,268 327,260.836 327,252 C327,243.163 319.837,236 311,236 L311,236 Z"></path>
        </g>
    </g>
</svg>