<?xml version="1.0" encoding="UTF-8"?>
<svg width="30px" height="30px" viewBox="0 0 30 30" version="1.1" xmlns="http://www.w3.org/2000/svg" xmlns:xlink="http://www.w3.org/1999/xlink">
    <title>Icons / Search bw</title>
    <defs>
        <path d="M2.50000229,11.565 C2.50000229,6.46038462 6.81625623,2.30769231 12.1187611,2.30769231 C17.4237659,2.30769231 21.7387699,6.46038462 21.7387699,11.565 C21.7387699,16.6696154 17.4237659,20.8211541 12.1187611,20.8211541 C6.81625623,20.8223077 2.50000229,16.6696154 2.50000229,11.565 M29.7050272,28.0996154 L21.3837695,19.0061538 C23.1612712,16.9915385 24.2387722,14.3976923 24.2387722,11.565 C24.2387722,5.18884615 18.8012672,0 12.1187611,0 C5.43750497,0 0,5.18884615 0,11.565 C0,17.9411538 5.43750497,23.1288462 12.1187611,23.1288462 C14.9462637,23.1288462 17.541266,22.1930769 19.6050179,20.64 L27.7950254,29.5892308 C28.0425256,29.8603846 28.396276,30 28.7500263,30 C29.0362765,30 29.3237768,29.91 29.557527,29.7288462 C30.0825275,29.3157692 30.1512776,28.5865385 29.7050272,28.0996154" id="path-1"></path>
    </defs>
    <g id="Search-Results" stroke="none" stroke-width="1" fill="none" fill-rule="evenodd">
        <g id="Desktop---Search-Results-" transform="translate(-960.000000, -137.000000)">
            <g id="Search-box" transform="translate(110.000000, 95.000000)">
                <g id="Color/greyscale/#000000" transform="translate(850.000000, 42.000000)">
                    <mask id="mask-2" fill="white">
                        <use xlink:href="#path-1"></use>
                    </mask>
                    <use id="Mask" fill="#000000" xlink:href="#path-1"></use>
                    <g id="Group" mask="url(#mask-2)">
                        <g transform="translate(-1.071429, 0.000000)" id="Color/greyscale/#000000">
                            <rect id="Rectangle-Copy-19" fill="#46166B" x="0" y="0" width="32.1428571" height="30"></rect>
                        </g>
                    </g>
                </g>
            </g>
        </g>
    </g>
</svg>