<svg xmlns="http://www.w3.org/2000/svg" width="26" height="30" viewBox="0 0 26 30">
    <g fill="#000" fill-rule="nonzero">
        <path d="M13 .051C5.837.051.038 5.885.038 13.09a13.049 13.049 0 0 0 8.603 12.282 28.359 28.359 0 0 1-.255-2.436c0-.026 0-.051-.012-.077a10.84 10.84 0 0 1-6.13-9.77C2.243 7.116 7.06 2.27 13 2.27c5.94 0 10.757 4.846 10.757 10.82 0 4.27-2.46 7.95-6.016 9.719 0 .038-.013.09-.013.128 0 0-.05 1.026-.254 2.397a13.03 13.03 0 0 0 8.488-12.243C25.962 5.885 20.162.05 13 .05z"/>
        <ellipse cx="12.999" cy="12.513" rx="3.683" ry="3.705" transform="rotate(-45 12.999 12.513)"/>
        <path d="M17.066 18.141c.28.551.497 1.244.624 2.115a8.599 8.599 0 0 0 3.85-7.18c0-4.743-3.824-8.589-8.54-8.589-4.716 0-8.54 3.846-8.54 8.59 0 3 1.53 5.628 3.837 7.167.128-.872.344-1.565.625-2.116a6.53 6.53 0 0 1-2.397-5.051c0-3.59 2.894-6.513 6.475-6.513 3.569 0 6.475 2.91 6.475 6.513a6.528 6.528 0 0 1-2.41 5.064z"/>
        <path d="M13.675 17.32h-1.338c-1.134.039-3.364.731-2.778 5.834 0 0 .255 6.705 2.753 6.795h1.07c2.55.025 3.072-6.795 3.072-6.795.573-5.09-1.631-5.795-2.779-5.833z"/>
    </g>
</svg>
