<?xml version="1.0" encoding="utf-8"?>
<!-- Generator: Adobe Illustrator 22.1.0, SVG Export Plug-In . SVG Version: 6.00 Build 0)  -->
<svg version="1.1" id="Layer_1" xmlns="http://www.w3.org/2000/svg" xmlns:xlink="http://www.w3.org/1999/xlink" x="0px" y="0px"
	 viewBox="0 0 44 44" style="enable-background:new 0 0 44 44;" xml:space="preserve">
<style type="text/css">
	.st0{fill:#5C5C5C;}
</style>
<path class="st0" d="M22,0C9.8,0,0,9.8,0,22s9.8,22,22,22s22-9.8,22-22S34.2,0,22,0z M15.9,31.3h-4.6V16.6h4.6V31.3L15.9,31.3z
	 M13.6,14.6c-1.5,0-2.6-1.2-2.6-2.7s1.2-2.6,2.7-2.6s2.6,1.2,2.6,2.7l0,0C16.3,13.4,15.1,14.6,13.6,14.6z M33,31.3h-4.5v-7.1
	c0-1.7,0-3.9-2.4-3.9s-2.7,1.9-2.7,3.8v7.3h-4.6V16.6h4.4v2h0.1c0.9-1.5,2.6-2.4,4.3-2.4c4.6,0,5.5,3,5.5,7L33,31.3L33,31.3z"/>
</svg>
