<svg xmlns="http://www.w3.org/2000/svg" width="40" height="40" viewBox="0 0 40 40">
    <g fill="#C7202F" fill-rule="evenodd">
        <path d="M37.193 33.913H2.528c-.117 0-.202-.015-.255-.027a.943.943 0 0 1 .103-.235L19.71 3.515c.06-.102.113-.168.151-.206.04.038.093.104.152.206l17.334 30.136c.059.1.086.18.104.235a1.138 1.138 0 0 1-.258.027m2.113-1.4L21.97 2.38C21.468 1.503 20.697 1 19.861 1c-.837 0-1.607.503-2.11 1.379L.417 32.514c-.506.876-.555 1.797-.135 2.526.419.726 1.234 1.144 2.245 1.144h34.668c1.009 0 1.826-.418 2.245-1.145.42-.728.369-1.65-.135-2.525"/>
        <path d="M19.86 24.92a1.7 1.7 0 0 0 1.699-1.703v-7.383a1.7 1.7 0 0 0-1.698-1.702c-.938 0-1.696.762-1.696 1.702v7.383c0 .941.758 1.704 1.696 1.704M19.86 26.624c-.937 0-1.695.763-1.695 1.704 0 .94.758 1.703 1.696 1.703a1.7 1.7 0 0 0 1.698-1.703 1.7 1.7 0 0 0-1.698-1.704"/>
    </g>
</svg>
