<?xml version="1.0" encoding="UTF-8"?>
<svg width="58px" height="58px" viewBox="0 0 58 58" version="1.1" xmlns="http://www.w3.org/2000/svg"
     xmlns:xlink="http://www.w3.org/1999/xlink">
    <!-- Generator: Sketch 51.3 (57544) - http://www.bohemiancoding.com/sketch -->
    <title>Fill 6</title>
    <desc>Created with Sketch.</desc>
    <defs></defs>
    <g id="Global" stroke="none" stroke-width="1" fill="none" fill-rule="evenodd">
        <g id="Icons" transform="translate(-764.000000, -394.000000)" fill="#9073A6">
            <g id="Column-3-Copy" transform="translate(763.000000, 49.000000)">
                <g id="Social-Media" transform="translate(1.000000, 200.895000)">
                    <path d="M43.1982,185.0566 L37.3272,185.0566 L37.3272,175.8406 C37.3272,173.6476 37.3272,170.8066 34.2662,170.8066 C31.2082,170.8066 30.7302,173.2066 30.7302,175.6866 L30.7302,185.0696 L24.8442,185.0696 L24.8442,166.0956 L30.4982,166.0956 L30.4982,168.6776 L30.5762,168.6776 C31.7292,166.7076 33.8712,165.5336 36.1512,165.6186 C42.1152,165.6186 43.2252,169.4916 43.2252,174.6536 L43.2252,185.0566 L43.1982,185.0566 Z M18.1972,163.5016 C16.3082,163.5016 14.7762,161.9706 14.7762,160.0796 C14.7762,158.1926 16.3082,156.6606 18.1972,156.6606 C20.0862,156.6606 21.6182,158.1926 21.6182,160.0796 C21.6182,161.9706 20.0862,163.5016 18.1972,163.5016 Z M21.1392,185.0566 L15.2412,185.0566 L15.2412,166.0956 L21.1392,166.0956 L21.1392,185.0696 L21.1392,185.0566 Z M29.0002,144.7076 C13.3172,144.7076 0.6042,157.4216 0.6042,173.1046 C0.6042,188.7866 13.3172,201.5006 29.0002,201.5006 C44.6832,201.5006 57.3972,188.7866 57.3972,173.1046 C57.3972,157.4216 44.6832,144.7076 29.0002,144.7076 Z"
                          id="Fill-6"></path>
                </g>
            </g>
        </g>
    </g>
</svg>
