<?xml version="1.0" encoding="UTF-8"?>
<svg width="32px" height="32px" viewBox="0 0 32 32" version="1.1" xmlns="http://www.w3.org/2000/svg" xmlns:xlink="http://www.w3.org/1999/xlink">
    <!-- Generator: Sketch 51.1 (57501) - http://www.bohemiancoding.com/sketch -->
    <title>Group 5</title>
    <desc>Created with Sketch.</desc>
    <defs></defs>
    <g id="Social-Icons" stroke="none" stroke-width="1" fill="none" fill-rule="evenodd">
        <g transform="translate(-522.000000, -124.000000)" fill="#46166B" id="Group-5">
            <g transform="translate(522.000000, 124.000000)">
                <path d="M19.154,16.069 C19.154,14.374 17.776,13 16.077,13 C14.378,13 13,14.374 13,16.069 C13,17.765 14.378,19.139 16.077,19.139 C17.776,19.139 19.154,17.765 19.154,16.069 Z" id="Fill-202"></path>
                <path d="M20.448,13.051 L22.611,13.051 C22.858,13.051 23.059,12.851 23.059,12.605 L23.059,10.446 C23.059,10.2 22.858,10 22.611,10 L20.448,10 C20.201,10 20,10.2 20,10.446 L20,12.605 C20,12.851 20.201,13.051 20.448,13.051" id="Fill-203"></path>
                <path d="M24,22.102 C24,23.15 23.149,24 22.098,24 L9.902,24 C8.852,24 8,23.15 8,22.102 L8,9.897 C8,8.849 8.852,8 9.902,8 L22.098,8 C23.149,8 24,8.849 24,9.897 L24,22.102 Z M16,0 C7.163,0 0,7.163 0,16 C0,24.836 7.163,32 16,32 C24.837,32 32,24.836 32,16 C32,7.163 24.837,0 16,0 L16,0 Z" id="Fill-204"></path>
                <path d="M21.058,16.284 C21.058,18.961 18.875,21.14 16.191,21.14 C13.507,21.14 11.324,18.961 11.324,16.284 C11.324,15.84 11.384,15.409 11.497,15 L10,15 L10,21.958 C10,22.205 10.2,22.405 10.447,22.405 L21.934,22.405 C22.182,22.405 22.382,22.205 22.382,21.958 L22.382,15 L20.885,15 C20.998,15.409 21.058,15.84 21.058,16.284" id="Fill-205"></path>
            </g>
        </g>
    </g>
</svg>