<?xml version="1.0" encoding="utf-8"?>
<!-- Generator: Adobe Illustrator 25.0.1, SVG Export Plug-In . SVG Version: 6.00 Build 0)  -->
<svg version="1.1" xmlns="http://www.w3.org/2000/svg" xmlns:xlink="http://www.w3.org/1999/xlink" x="0px" y="0px"
	 viewBox="0 0 30 30" style="enable-background:new 0 0 30 30;" xml:space="preserve">
<style type="text/css">
	.st0{fill:#EDEDED;}
</style>
<g id="Icons_x2F_Subscribe">
	<g id="Rectangle_2_" transform="translate(1.000000, 1.000000)">
		<g id="Mask">
			<path id="Path" class="st0" d="M10,25.5c0.6,1.8,2.2,3.2,4,3.2s3.4-1.3,4-3.2H10z"/>
			<rect id="Rectangle" x="11.5" y="2.6" class="st0" width="5.1" height="1.7"/>
			<circle id="Oval" class="st0" cx="14.1" cy="2.6" r="2.6"/>
			<ellipse id="Oval_1_" class="st0" cx="14.1" cy="12.8" rx="8.6" ry="9.4"/>
			<rect id="Rectangle_1_" x="5.5" y="13.7" class="st0" width="17.1" height="11.1"/>
			<path id="Path_1_" class="st0" d="M6.4,19.3c0-0.2-0.1-0.3-0.3-0.1l-2.8,3.1c-0.2,0.2-0.3,0.5-0.3,0.7v1.4c0,0.2,0.2,0.4,0.4,0.4
				h2.6c0.2,0,0.4-0.2,0.4-0.4V19.3z"/>
			<path id="Path_2_" class="st0" d="M21.8,19.3c0-0.2,0.1-0.3,0.3-0.1l2.8,3.1c0.2,0.2,0.3,0.5,0.3,0.7v1.4c0,0.2-0.2,0.4-0.4,0.4
				h-2.6c-0.2,0-0.4-0.2-0.4-0.4V19.3z"/>
			<path id="Path_3_" class="st0" d="M1.3,13.8c-0.7,0-1.3-0.6-1.3-1.3c0-3.7,1.5-7.3,4.1-9.9C4.4,2.3,4.7,2,5,1.8
				c0.5-0.5,1.4-0.4,1.8,0.2s0.4,1.4-0.2,1.8C6.4,3.9,6.2,4.2,5.9,4.4c-2.2,2.2-3.4,5.1-3.4,8.1C2.6,13.2,2,13.8,1.3,13.8z"/>
			<path id="Path_4_" class="st0" d="M26.7,13.6c-0.7,0-1.3-0.6-1.3-1.3c0-3.1-1.2-5.9-3.4-8.1c-0.2-0.2-0.5-0.5-0.7-0.7
				c-0.5-0.5-0.6-1.3-0.2-1.8s1.3-0.6,1.8-0.2c0.3,0.3,0.6,0.5,0.9,0.8c2.7,2.7,4.1,6.2,4.1,9.9C28,13,27.4,13.6,26.7,13.6z"/>
		</g>
	</g>
</g>
</svg>
