<?xml version="1.0" encoding="UTF-8"?>
<svg width="32px" height="32px" viewBox="0 0 32 32" version="1.1" xmlns="http://www.w3.org/2000/svg" xmlns:xlink="http://www.w3.org/1999/xlink">
    <title>BookmarksMenuIcon_Locker</title>
    <g id="BookmarksMenuIcon_Locker" stroke="none" stroke-width="1" fill="none" fill-rule="evenodd" stroke-linejoin="round">
        <g id="Group-2" transform="translate(5.000000, 3.000000)" stroke="#310F4A" stroke-width="1.5">
            <path d="M20.0869565,-0.75 C20.5421654,-0.75 20.9529026,-0.571286879 21.250741,-0.286662723 C21.5611786,0.0100016632 21.75,0.42073605 21.75,0.87253429 L21.75,0.87253429 L21.75,25.127373 C21.75,25.5791507 21.5611875,25.9899119 21.2507566,26.2866014 C20.95291,26.5712637 20.5421646,26.75 20.0869565,26.75 C19.7631213,26.75 19.4468299,26.6574855 19.1775082,26.4859037 L19.1775082,26.4859037 L10.6034825,21.0234903 L1.8224918,26.4859037 C1.44638047,26.72552 1.00431976,26.7982078 0.593184537,26.719629 C0.175699442,26.6398365 -0.207498092,26.4049611 -0.461766108,26.0404808 C-0.650405821,25.7700753 -0.75,25.4521426 -0.75,25.127373 L-0.75,25.127373 L-0.75,0.87253429 C-0.75,0.42073605 -0.561178613,0.0100016632 -0.250740976,-0.286662723 C0.0470974385,-0.571286879 0.457834575,-0.75 0.913043478,-0.75 L0.913043478,-0.75 Z" id="Saved"></path>
        </g>
    </g>
</svg>