<svg xmlns="http://www.w3.org/2000/svg" viewBox="0 0 1570.03 3333.65"><defs><style>.cls-1{isolation:isolate;}.cls-2{fill:#fff;opacity:0.35;mix-blend-mode:overlay;}</style></defs><g class="cls-1"><g id="Layer_2" data-name="Layer 2"><path class="cls-2" d="M1569.76,1769.93v0l.27-.26v0Zm.27-5.85v0l-.27.25v0Zm0-5.59v0l-.27.24v0Zm0-5.58v0l-.27.23v0Zm0-5.59v0l-.27.21v0Zm0-5.59v0l-.27.2v0Zm0-5.59v0l-.27.18v0Zm0-5.59v0l-.27.17v0Zm0-5.59v0l-.27.16v0Zm0-5.59v0l-.27.15v0Zm0-5.58v0l-.27.14v0Zm0-5.59v0l-.27.12v0Zm0-5.59v0l-.27.11v0Zm0-5.59v0l-.27.1v0Zm0-5.59v0l-.27.08v0Zm0-5.59v0l-.27.07v0Zm0-5.59v0l-.27.06v0Zm0-5.59v0l-.27,0v0Zm0-5.58v0l-.27,0v0Zm0-5.6v0l-.27,0v0Zm0-5.58v0h-.27v0Zm0-5.59v0h-.27v0Zm0-5.59v0l-.27,0v0Zm0-5.59v0l-.27,0v0Zm0-5.59v0l-.27,0v0Zm0-5.59v0l-.27-.06v0Zm0-5.58v0l-.27-.07v0Zm0-5.59v0l-.27-.08v0Zm0-5.59v0l-.27-.09v0Zm0-5.59v0l-.27-.11v0Zm0-5.59v0l-.27-.12v0Zm0-5.59v0l-.27-.14v0Zm0-5.59v0l-.27-.15v0Zm0-5.58v0l-.27-.16v0Zm0-5.59v0l-.27-.17v0Zm0-5.59v0l-.27-.18v0Zm0-5.59v0l-.27-.2v0Zm0-5.59v0l-.27-.21v0Zm0-5.59v0l-.27-.23v0Zm0-5.59v0l-.27-.24v0Zm0-5.58v0l-.27-.25v0Zm0-5.6v0l-.27-.26v0Zm-62.22,289.91v0l-.26.27v0Zm0-8.55v0l-.26.25v0Zm0-8.55v0l-.26.24v0Zm0-8.57v0l-.26.22v0Zm0-8.54v0l-.26.23v0Zm0-8.55v0l-.26.21v0Zm0-8.55v0a2.26,2.26,0,0,0-.26.2v0Zm0-8.56v0a2,2,0,0,0-.26.18v0Zm0-8.56v0l-.26.16v0Zm0-8.56v0l-.26.15v0A1.22,1.22,0,0,0,1507.81,1753.45Zm0-8.54v0l-.26.13v0Zm0-8.55v0l-.26.13v0Zm0-8.55v0l-.26.11v0Zm0-8.55v0l-.26.1v0Zm0-8.57v0l-.26.08v0Zm0-8.54v0l-.26.07v0Zm0-8.55v0l-.26.06v0Zm0-8.56v0l-.26,0v0Zm0-8.55v0l-.26,0v0Zm0-8.55v0l-.26,0v0Zm0-8.57v0h-.26v0A1.14,1.14,0,0,0,1507.81,1659.37Zm0-8.54v0h-.26v0Zm0-8.55v0h-.26v0Zm0-8.55v0l-.26,0v0Zm0-8.55v0l-.26-.05v0Zm0-8.57v0l-.26-.06v0Zm0-8.55v0l-.26-.07v0A2.44,2.44,0,0,0,1507.81,1608.06Zm0-8.54v0l-.26-.08v0Zm0-8.56v0l-.26-.1v0Zm0-8.55v0l-.26-.11v0Zm0-8.55v0l-.26-.12v0Zm0-8.57v0l-.26-.14v0A1.51,1.51,0,0,0,1507.81,1565.29Zm0-8.54v0l-.26-.15v0Zm0-8.55v0l-.26-.16v0Zm0-8.55v0l-.26-.17v0Zm0-8.55v0l-.26-.19v0Zm0-8.57v0l-.26-.2v0A2.14,2.14,0,0,0,1507.81,1522.53Zm0-8.55v0l-.26-.2v0Zm0-8.54v0c-.09-.07-.17-.15-.26-.21v0Zm0-8.55v0l-.26-.23v0Zm0-8.56v0l-.26-.23v0Zm0-8.55v0l-.26-.26v0C1507.64,1479.6,1507.72,1479.69,1507.81,1479.78Zm-61.61,411v-.27l-1.47,1.44v.28Zm0-11.48V1879l-1.47,1.37v.28Zm0-11.49v-.28l-1.47,1.31v.27Zm0-11.49V1856l-1.47,1.23v.27Zm0-11.49v-.27l-1.47,1.16v.27Zm0-11.49V1833l-1.47,1.09v.27Zm0-11.48v-.28l-1.47,1v.28Zm0-11.49v-.27l-1.47.94v.28Zm0-11.49v-.27l-1.47.88v.27Zm0-11.49v-.27l-1.47.81v.27Zm0-11.49v-.27l-1.47.74v.27Zm0-11.49v-.27l-1.47.67v.27Zm0-11.48v-.28l-1.47.6v.28Zm0-11.49v-.27l-1.47.52v.28Zm0-11.49v-.27l-1.47.45v.28Zm0-11.49v-.27l-1.47.39v.27Zm0-11.49v-.27l-1.47.32v.27Zm0-11.48v-.28l-1.47.25v.27Zm0-11.49v-.27l-1.47.17v.28Zm0-11.49v-.27l-1.47.1v.28Zm0-11.49v-.27l-1.47,0v.28Zm0-11.49v-.27l-1.47,0v.27Zm0-11.48v-.28l-1.47-.1v.27Zm0-11.49v-.27l-1.47-.18v.27Zm0-11.49v-.27l-1.47-.25v.27Zm0-11.49v-.27l-1.47-.32v.28Zm0-11.49v-.27l-1.47-.39v.28Zm0-11.48v-.28l-1.47-.46v.28Zm0-11.49v-.28l-1.47-.52v.27Zm0-11.49v-.27l-1.47-.6v.27Zm0-11.49v-.27l-1.47-.67v.27Zm0-11.49v-.27l-1.47-.74v.28Zm0-11.48v-.28l-1.47-.81v.28Zm0-11.49v-.27l-1.47-.89v.28Zm0-11.49v-.27l-1.47-.95v.27Zm0-11.49v-.27l-1.47-1v.27Zm0-11.49v-.27l-1.47-1.09v.27Zm0-11.48v-.28l-1.47-1.16v.27Zm0-11.49v-.27l-1.47-1.24v.28Zm0-11.49v-.27l-1.47-1.31v.28Zm0-11.49v-.27l-1.47-1.37v.27Zm0-11.49v-.27l-1.47-1.44v.27Zm-61.6,531.36v-.62l-2.69,2.62v.63Zm0-14.42V1936l-2.69,2.49v.63Zm0-14.42v-.63l-2.69,2.37v.62Zm0-14.43v-.62l-2.69,2.24v.62Zm0-14.42v-.62l-2.69,2.1v.63Zm0-14.42v-.63l-2.69,2v.63Zm0-14.43v-.62l-2.69,1.85v.63Zm0-14.42v-.62l-2.69,1.72v.63Zm0-14.42v-.63l-2.69,1.6v.63Zm0-14.43v-.62l-2.69,1.47v.63Zm0-14.42v-.62l-2.69,1.34v.62Zm0-14.42v-.63l-2.69,1.22v.62Zm0-14.43v-.62l-2.69,1.08v.63Zm0-14.42V1763l-2.69,1v.63Zm0-14.42v-.63l-2.69.83v.63Zm0-14.43v-.62l-2.69.7v.63Zm0-14.42v-.62l-2.69.57v.63Zm0-14.42v-.63l-2.69.45v.63Zm0-14.43v-.62l-2.69.32v.62Zm0-14.42v-.62l-2.69.18v.63Zm0-14.42V1662l-2.69.06v.63Zm0-14.43v-.62l-2.69-.07v.63Zm0-14.42v-.62l-2.69-.2v.63Zm0-14.43v-.62l-2.69-.32v.63Zm0-14.42v-.62l-2.69-.45v.63Zm0-14.42v-.62l-2.69-.58v.62Zm0-14.42v-.63l-2.69-.7v.62Zm0-14.43V1561l-2.69-.84v.63Zm0-14.42v-.62l-2.69-1v.63Zm0-14.43v-.62l-2.69-1.09v.63Zm0-14.42v-.62l-2.69-1.22v.63Zm0-14.42v-.62l-2.69-1.35v.63Zm0-14.43v-.62l-2.69-1.47v.63Zm0-14.42v-.62l-2.69-1.6v.62Zm0-14.42v-.62l-2.69-1.73v.62Zm0-14.43v-.62l-2.69-1.86v.63Zm0-14.42v-.62l-2.69-2v.63Zm0-14.42v-.62l-2.69-2.12v.63Zm0-14.43v-.62l-2.69-2.24v.63Zm0-14.42V1388l-2.69-2.37v.63Zm0-14.42v-.62l-2.69-2.5v.63Zm0-14.43v-.62l-2.69-2.62v.62ZM1323,2011.49v-1.09l-3.9,3.8v1.1Zm0-17.36V1993l-3.9,3.61v1.1Zm0-17.36v-1.09l-3.9,3.43v1.1Zm0-17.36v-1.08l-3.9,3.24v1.09Zm0-17.36V1941l-3.9,3v1.1Zm0-17.36v-1.08l-3.9,2.87v1.09C1320.39,1926.61,1321.69,1925.66,1323,1924.69Zm0-17.35v-1.09l-3.9,2.68v1.1Zm0-17.36v-1.09l-3.9,2.5v1.1Zm0-17.36v-1.09l-3.9,2.32v1.09Zm0-17.36v-1.09l-3.9,2.13v1.1Zm0-17.36v-1.08l-3.9,1.94v1.09Zm0-17.36v-1.08l-3.9,1.75v1.1Zm0-17.36v-1.08l-3.9,1.57v1.1Zm0-17.35v-1.09l-3.9,1.38v1.1Zm0-17.36v-1.09l-3.9,1.2v1.1Zm0-17.36V1750l-3.9,1v1.09Zm0-17.36v-1.09l-3.9.83v1.1Zm0-17.36v-1.09l-3.9.65v1.1Zm0-17.36V1698l-3.9.45v1.1Zm0-17.36v-1.08l-3.9.27v1.1Zm0-17.36v-1.08l-3.9.09v1.09Zm0-17.35v-1.09l-3.9-.1v1.1Zm0-17.36v-1.09l-3.9-.28v1.1Zm0-17.36v-1.09l-3.9-.47v1.1Zm0-17.36v-1.09l-3.9-.65v1.1Zm0-17.36v-1.08l-3.9-.84v1.09Zm0-17.36v-1.08l-3.9-1v1.1Zm0-17.36v-1.08l-3.9-1.21v1.09Zm0-17.36v-1.08l-3.9-1.4v1.1Zm0-17.35V1507l-3.9-1.58v1.1Zm0-17.36v-1.09l-3.9-1.77v1.1Zm0-17.36v-1.09l-3.9-2v1.1Zm0-17.36v-1.09l-3.9-2.13v1.09Zm0-17.36v-1.08l-3.9-2.33v1.1Zm0-17.36v-1.08l-3.9-2.51v1.1Zm0-17.36v-1.08l-3.9-2.7v1.1Zm0-17.35v-1.09l-3.9-2.88v1.1Zm0-17.36v-1.09l-3.9-3.06v1.09Zm0-17.36v-1.09l-3.9-3.25v1.1Zm0-17.36v-1.09l-3.9-3.43v1.09Zm0-17.36v-1.09l-3.9-3.62v1.1Zm0-17.36v-1.08l-3.9-3.81v1.1ZM1261.38,2072v-1.66l-5.1,5v1.68Zm0-20.29V2050l-5.1,4.73v1.68Zm0-20.3v-1.66l-5.1,4.48v1.69Zm0-20.29v-1.66l-5.1,4.24v1.68Zm0-20.29v-1.67l-5.1,4v1.68Zm0-20.3v-1.66l-5.1,3.75v1.69Zm0-20.29v-1.67l-5.1,3.52v1.68Zm0-20.3v-1.66l-5.1,3.27v1.68Zm0-20.29v-1.66l-5.1,3v1.69Zm0-20.3v-1.66l-5.1,2.79v1.68Zm0-20.29v-1.66l-5.1,2.54v1.68Zm0-20.29v-1.67l-5.1,2.3V1851Zm0-20.3v-1.66l-5.1,2.06v1.68Zm0-20.29v-1.66l-5.1,1.81V1810Zm0-20.3v-1.66l-5.1,1.57v1.68Zm0-20.29v-1.66l-5.1,1.32v1.69Zm0-20.29v-1.67l-5.1,1.09v1.68Zm0-20.3v-1.66l-5.1.84v1.68Zm0-20.29V1705l-5.1.59v1.69Zm0-20.3v-1.66l-5.1.36v1.68Zm0-20.29v-1.66l-5.1.11v1.68Zm0-20.29v-1.67l-5.1-.13v1.69Zm0-20.3v-1.66l-5.1-.37v1.68Zm0-20.29v-1.66l-5.1-.62v1.68Zm0-20.3v-1.66l-5.1-.86v1.68Zm0-20.29v-1.66l-5.1-1.11v1.69Zm0-20.29v-1.67l-5.1-1.34V1543Zm0-20.3v-1.66l-5.1-1.59v1.68Zm0-20.29v-1.66l-5.1-1.84v1.69Zm0-20.3v-1.66l-5.1-2.07v1.68Zm0-20.29v-1.66l-5.1-2.32v1.68Zm0-20.29v-1.67l-5.1-2.56v1.69Zm0-20.3v-1.66l-5.1-2.8v1.68Zm0-20.29v-1.66l-5.1-3v1.68Zm0-20.29v-1.67l-5.1-3.29v1.68Zm0-20.3V1360l-5.1-3.54v1.69Zm0-20.29v-1.67l-5.1-3.77v1.68Zm0-20.3v-1.66l-5.1-4v1.68Zm0-20.29v-1.66l-5.1-4.27v1.69Zm0-20.29v-1.67l-5.1-4.5V1276Zm0-20.3v-1.66l-5.1-4.75v1.68Zm0-20.29v-1.67l-5.1-5v1.69Zm-61.61,892.57v-2.35q-3.16,3.06-6.31,6.14v2.39Zm0-23.23v-2.35q-3.16,2.91-6.31,5.84v2.39Zm0-23.23v-2.35q-3.16,2.76-6.31,5.54v2.39Zm0-23.23v-2.35l-6.31,5.24v2.39Zm0-23.23v-2.35l-6.31,4.94v2.39Zm0-23.23V2014l-6.31,4.64V2021Zm0-23.23v-2.35l-6.31,4.34v2.39Zm0-23.23v-2.35l-6.31,4v2.39Zm0-23.22v-2.36l-6.31,3.74v2.39Q1196.61,1948.52,1199.77,1946.64Zm0-23.23v-2.36l-6.31,3.44v2.39Q1196.61,1925.14,1199.77,1923.41Zm0-23.23v-2.36l-6.31,3.14v2.39Q1196.61,1901.76,1199.77,1900.18Zm0-23.23v-2.36l-6.31,2.84v2.39Zm0-23.23v-2.36l-6.31,2.54v2.39Zm0-23.23v-2.35l-6.31,2.23v2.39Zm0-23.23v-2.35l-6.31,1.93v2.39Zm0-23.23v-2.35l-6.31,1.63v2.39Zm0-23.23v-2.35l-6.31,1.33v2.39Zm0-23.23v-2.35l-6.31,1v2.39Zm0-23.23V1712l-6.31.73v2.39Zm0-23.23v-2.35l-6.31.43v2.39Zm0-23.23v-2.35l-6.31.13v2.39Zm0-23.22v-2.36l-6.31-.17v2.39Zm0-23.23v-2.36l-6.31-.47V1621Zm0-23.23v-2.36l-6.31-.77v2.39Zm0-23.23v-2.36l-6.31-1.06v2.38Zm0-23.23v-2.36l-6.31-1.36v2.38Zm0-23.23v-2.36l-6.31-1.66v2.38Zm0-23.23v-2.36l-6.31-2v2.38Zm0-23.23v-2.36l-6.31-2.26v2.38Zm0-23.23v-2.35l-6.31-2.57v2.38Zm0-23.23v-2.35l-6.31-2.87v2.38Zm0-23.23V1410l-6.31-3.17v2.38Zm0-23.23v-2.35l-6.31-3.47v2.38Q1196.61,1387.42,1199.77,1389.13Zm0-23.23v-2.35l-6.31-3.77v2.38Q1196.61,1364,1199.77,1365.9Zm0-23.23v-2.35l-6.31-4.07v2.38Q1196.61,1340.66,1199.77,1342.67Zm0-23.23v-2.35l-6.31-4.37v2.38Q1196.61,1317.28,1199.77,1319.44Zm0-23.22v-2.36l-6.31-4.67v2.38Zm0-23.23v-2.36l-6.31-5V1268Zm0-23.23v-2.36l-6.31-5.27v2.38Zm0-23.23v-2.36l-6.31-5.57V1221Zm0-23.23v-2.36l-6.31-5.87v2.38Zm0-23.23v-2.36q-3.16-3.07-6.31-6.17v2.38Zm-61.61,1013v-3.16l-7.52,7.32v3.2Zm0-26.17v-3.16l-7.52,7v3.21Zm0-26.16v-3.16l-7.52,6.6v3.2Zm0-26.17v-3.16l-7.52,6.25v3.2Zm0-26.16v-3.16l-7.52,5.88v3.21Zm0-26.17v-3.16l-7.52,5.53v3.21Zm0-26.16v-3.16l-7.52,5.17v3.2Zm0-26.17v-3.16l-7.52,4.82v3.2Zm0-26.16v-3.16l-7.52,4.45v3.21Zm0-26.16v-3.16l-7.52,4.09v3.2Zm0-26.17v-3.16l-7.52,3.74v3.2Zm0-26.16v-3.16l-7.52,3.38v3.2Zm0-26.17v-3.16l-7.52,3v3.21Zm0-26.16v-3.16l-7.52,2.66v3.2Zm0-26.17v-3.16l-7.52,2.31v3.2Zm0-26.16v-3.16l-7.52,1.94v3.21Zm0-26.17v-3.16l-7.52,1.59v3.21Zm0-26.16v-3.16l-7.52,1.23v3.2Zm0-26.17v-3.16l-7.52.88v3.2Zm0-26.16v-3.16l-7.52.51v3.21Zm0-26.17v-3.16l-7.52.16V1670Zm0-26.16v-3.16l-7.52-.2v3.2Zm0-26.16v-3.17l-7.52-.55v3.2Zm0-26.17v-3.16l-7.52-.92v3.21Zm0-26.16v-3.16l-7.52-1.28v3.2Zm0-26.17v-3.16l-7.52-1.63v3.2Zm0-26.16v-3.16l-7.52-2v3.2Zm0-26.17v-3.16l-7.52-2.35v3.21Zm0-26.16v-3.16l-7.52-2.71v3.2Zm0-26.17v-3.16l-7.52-3.06v3.2Zm0-26.16V1405l-7.52-3.43v3.21Zm0-26.17v-3.16l-7.52-3.78v3.21Zm0-26.16v-3.16l-7.52-4.14v3.2Zm0-26.17v-3.16l-7.52-4.49v3.2Zm0-26.16v-3.16l-7.52-4.86v3.21Zm0-26.17v-3.16l-7.52-5.21v3.21Zm0-26.16V1248l-7.52-5.57v3.2Zm0-26.16v-3.17l-7.52-5.92v3.2Zm0-26.17v-3.16l-7.52-6.29v3.21Zm0-26.16v-3.16l-7.52-6.65v3.2Zm0-26.17v-3.16l-7.52-7v3.2Zm0-26.16v-3.16l-7.52-7.36v3.2Zm-61.61,1133.38v-4.08l-8.73,8.49v4.14Zm0-29.1v-4.08l-8.73,8.08v4.13Zm0-29.1v-4.08l-8.73,7.66v4.14Zm0-29.1v-4.08l-8.73,7.24v4.14Zm0-29.1v-4.08l-8.73,6.83v4.14Zm0-29.1v-4.08l-8.73,6.41v4.14Zm0-29.1V2075l-8.73,6v4.14Zm0-29.1v-4.08l-8.73,5.58v4.14Zm0-29.1v-4.08l-8.73,5.17v4.13Zm0-29.1v-4.08l-8.73,4.75v4.14Zm0-29.1v-4.08l-8.73,4.34v4.13Zm0-29.1v-4.08l-8.73,3.92v4.14Zm0-29.1v-4.08l-8.73,3.5V1908Zm0-29.1v-4.08l-8.73,3.09v4.14Zm0-29.1v-4.08l-8.73,2.67V1849Zm0-29.1v-4.08l-8.73,2.26v4.14Zm0-29.1V1784l-8.73,1.84V1790Zm0-29.1v-4.08l-8.73,1.43v4.14Zm0-29.1v-4.08l-8.73,1V1731Zm0-29.1v-4.08l-8.73.6v4.13Zm0-29.1v-4.08l-8.73.18v4.14Zm0-29.1v-4.08l-8.73-.23v4.13Zm0-29.1v-4.08l-8.73-.65v4.14Zm0-29.1v-4.08l-8.73-1.07v4.14Zm0-29.1v-4.08l-8.73-1.48v4.14Zm0-29.1v-4.08l-8.73-1.9v4.14Zm0-29.1V1493l-8.73-2.31v4.14Zm0-29.1v-4.08l-8.73-2.73v4.14Zm0-29.1v-4.08l-8.73-3.14v4.13Zm0-29.1v-4.08l-8.73-3.56v4.14Zm0-29.1v-4.08l-8.73-4v4.13Zm0-29.1v-4.08l-8.73-4.39v4.14Zm0-29.1v-4.08l-8.73-4.81v4.14Zm0-29.1v-4.08l-8.73-5.22v4.14Zm0-29.1v-4.08l-8.73-5.64v4.14Zm0-29.1v-4.08l-8.73-6v4.14Zm0-29.1V1202l-8.73-6.47v4.14Zm0-29.1v-4.08l-8.73-6.88v4.14Zm0-29.1v-4.08l-8.73-7.3v4.14Zm0-29.1v-4.08l-8.73-7.71v4.13Zm0-29.1v-4.08l-8.73-8.13v4.14Zm0-29.1v-4.08l-8.73-8.55v4.14ZM1014.87,2314.4v-5l-9.8,9.53V2324Zm0-32v-5l-9.8,9.06v5.12Zm0-32v-5l-9.8,8.6V2259Zm0-32v-5.05l-9.8,8.13v5.12Zm0-32v-5.05l-9.8,7.67V2194Zm0-32v-5l-9.8,7.19v5.12Zm0-32v-5l-9.8,6.73V2129Zm0-32v-5l-9.8,6.26v5.12Q1010,2093.31,1014.87,2090.13Zm0-32v-5l-9.8,5.8V2064Zm0-32v-5l-9.8,5.33v5.12Zm0-32v-5l-9.8,4.87V1999Zm0-32v-5l-9.8,4.39v5.12Zm0-32v-5l-9.8,3.93V1934Zm0-32v-5l-9.8,3.46v5.12Zm0-32v-5l-9.8,3v5.11Zm0-32v-5l-9.8,2.53v5.12Zm0-32v-5l-9.8,2.07v5.11Zm0-32v-5l-9.8,1.6v5.12Zm0-32v-5l-9.8,1.13v5.11Zm0-32v-5l-9.8.66v5.12Zm0-32v-5l-9.8.2v5.11Zm0-32v-5l-9.8-.27v5.12Zm0-32v-5l-9.8-.73v5.11Zm0-32v-5l-9.8-1.2v5.12Zm0-32v-5l-9.8-1.67v5.11Zm0-32v-5l-9.8-2.14v5.12Zm0-32v-5l-9.8-2.6v5.11Zm0-32v-5l-9.8-3.07v5.12Zm0-32v-5l-9.8-3.54v5.12Zm0-32v-5l-9.8-4v5.12Zm0-32v-5l-9.8-4.47v5.12Zm0-32v-5l-9.8-4.94v5.12Zm0-32v-5l-9.8-5.41v5.12Zm0-32v-5l-9.8-5.87v5.12Zm0-32v-5l-9.8-6.34v5.12Zm0-32v-5l-9.8-6.8v5.12Q1010,1189.69,1014.87,1193.06Zm0-32v-5l-9.8-7.27v5.12Zm0-32v-5l-9.8-7.74v5.12Zm0-32v-5l-9.8-8.21v5.12Zm0-32v-5l-9.8-8.67v5.12Zm0-32v-5l-9.8-9.14v5.12Zm0-32v-5.05l-9.8-9.6v5.12ZM953.33,2375.12v-6.26l-11.14,10.83V2386Zm0-35v-6.26l-11.14,10.3v6.35Zm0-35v-6.26l-11.14,9.77V2315Zm0-35V2264l-11.14,9.23v6.36Zm0-35V2229l-11.14,8.7V2244Zm0-35V2194l-11.14,8.17v6.36Zm0-35V2159l-11.14,7.64V2173Zm0-35v-6.26l-11.14,7.12v6.36Zm0-35v-6.26l-11.14,6.59V2102Q947.77,2098.7,953.33,2095.35Zm0-35v-6.26l-11.14,6.06v6.35Zm0-35v-6.26l-11.14,5.53V2031Zm0-35v-6.26l-11.14,5v6.35Zm0-35v-6.26l-11.14,4.46V1960Zm0-35v-6.26l-11.14,3.93v6.36Zm0-35v-6.26l-11.14,3.4V1889Zm0-35v-6.26l-11.14,2.87v6.36Zm0-35v-6.26l-11.14,2.34V1818Zm0-35v-6.26l-11.14,1.81v6.35Zm0-35v-6.26l-11.14,1.28V1747Zm0-35v-6.26l-11.14.75v6.35Zm0-35v-6.26l-11.14.21V1676Zm0-35v-6.26l-11.14-.32v6.36Zm0-35v-6.26l-11.14-.85V1605Zm0-35v-6.26l-11.14-1.38v6.36Zm0-35v-6.26l-11.14-1.9V1534Zm0-35v-6.27l-11.14-2.43v6.35Zm0-35v-6.26l-11.14-3V1463Zm0-35v-6.26l-11.14-3.49v6.35Zm0-35v-6.26l-11.14-4V1392Zm0-35v-6.26l-11.14-4.56v6.36Zm0-35v-6.26l-11.14-5.09V1321Zm0-35v-6.26l-11.14-5.62v6.36Zm0-35v-6.26l-11.14-6.15V1250Q947.77,1253,953.33,1256.06Zm0-35v-6.26l-11.14-6.68v6.35Zm0-35v-6.26l-11.14-7.21V1179Zm0-35v-6.26l-11.14-7.74v6.35Zm0-35v-6.26l-11.14-8.27V1108Zm0-35V1075l-11.14-8.81v6.36Zm0-35V1040l-11.14-9.34V1037Zm0-35V1005l-11.14-9.87v6.36Q947.77,1006.38,953.33,1011.27Zm0-35V970l-11.14-10.4V966Zm0-35v-6.27l-11.14-10.92v6.35ZM891.72,2435.92v-7.52l-12.35,12V2448Zm0-37.9v-7.52l-12.35,11.41v7.63Zm0-37.91v-7.52l-12.35,10.82v7.64Zm0-37.9v-7.53l-12.35,10.24v7.64Zm0-37.91v-7.52l-12.35,9.65v7.63Zm0-37.91v-7.52l-12.35,9.06v7.64Zm0-37.9V2201l-12.35,8.47v7.63Zm0-37.91v-7.52l-12.35,7.88v7.64Zm0-37.9v-7.52l-12.35,7.29v7.64Zm0-37.91v-7.52l-12.35,6.7v7.64Zm0-37.9v-7.53l-12.35,6.12v7.64Zm0-37.91v-7.52L879.37,2017v7.63Zm0-37.91v-7.52l-12.35,4.94v7.64Zm0-37.9v-7.52L879.37,1940v7.64Zm0-37.91v-7.52l-12.35,3.76v7.64Zm0-37.91v-7.52L879.37,1863v7.64Zm0-37.9v-7.52l-12.35,2.59v7.63Zm0-37.91V1784l-12.35,2v7.64Zm0-37.9v-7.52l-12.35,1.41v7.64Zm0-37.91v-7.52l-12.35.82v7.64Zm0-37.9v-7.53l-12.35.24v7.64Zm0-37.91v-7.52l-12.35-.35v7.63Zm0-37.91v-7.52l-12.35-.94v7.64Zm0-37.9v-7.52L879.37,1555v7.64Zm0-37.91v-7.52l-12.35-2.12v7.64Zm0-37.9v-7.52l-12.35-2.71v7.64Zm0-37.91v-7.52l-12.35-3.29v7.63Zm0-37.91v-7.52l-12.35-3.88v7.64Zm0-37.9V1367l-12.35-4.47v7.64Zm0-37.91v-7.52l-12.35-5.06v7.64Zm0-37.9v-7.52l-12.35-5.65v7.64Zm0-37.91v-7.52l-12.35-6.23v7.63Zm0-37.91v-7.52l-12.35-6.82v7.64Zm0-37.9v-7.52l-12.35-7.41v7.64Zm0-37.91v-7.52l-12.35-8v7.64Zm0-37.9v-7.52l-12.35-8.59v7.64Zm0-37.91v-7.52l-12.35-9.18v7.64Zm0-37.9v-7.53l-12.35-9.76v7.64Zm0-37.91V988l-12.35-10.35v7.64Zm0-37.91v-7.52l-12.35-10.94v7.64Zm0-37.9v-7.52l-12.35-11.53v7.64Zm0-37.91v-7.52l-12.35-12.12v7.64ZM830,2496.81V2488l-13.42,13V2510Zm0-40.85v-8.81l-13.42,12.4v8.95Zm0-40.84v-8.81l-13.42,11.76V2427Zm0-40.85v-8.81q-6.7,5.57-13.42,11.12v9Zm0-40.84v-8.81l-13.42,10.48v9Zm0-40.84v-8.81l-13.42,9.84v8.94Zm0-40.85v-8.81q-6.7,4.61-13.42,9.2v8.95Zm0-40.84v-8.81l-13.42,8.56v8.95Zm0-40.85v-8.81l-13.42,7.92v9Q823.34,2174.09,830,2170.05Zm0-40.84v-8.81l-13.42,7.28v9Zm0-40.85v-8.81l-13.42,6.65v8.94Zm0-40.84v-8.81l-13.42,6v8.95Zm0-40.85v-8.81l-13.42,5.37v9Zm0-40.84V1957l-13.42,4.73v8.94Zm0-40.84v-8.81l-13.42,4.08v9Zm0-40.85v-8.81l-13.42,3.45v9Zm0-40.84v-8.81l-13.42,2.8v9Zm0-40.85v-8.81l-13.42,2.17v9Zm0-40.84v-8.81l-13.42,1.53v9Zm0-40.85V1712l-13.42.89v9Zm0-40.84v-8.81l-13.42.25v9Zm0-40.85v-8.8l-13.42-.39v8.94Zm0-40.84v-8.81l-13.42-1v8.95Zm0-40.84v-8.81l-13.42-1.67v8.95Zm0-40.85v-8.81l-13.42-2.3v8.94Zm0-40.84v-8.81l-13.42-3v9Zm0-40.85V1426l-13.42-3.58v9Zm0-40.84v-8.81L816.62,1381v9Zm0-40.85v-8.81l-13.42-4.86v9Zm0-40.84v-8.81l-13.42-5.5V1307Zm0-40.84v-8.81l-13.42-6.15v9Zm0-40.85v-8.81L816.62,1215v9Zm0-40.84V1181l-13.42-7.42v8.94Zm0-40.85v-8.81l-13.42-8.06v9Zm0-40.84v-8.81l-13.42-8.7v9Zm0-40.85v-8.81l-13.42-9.34v9Zm0-40.84v-8.81l-13.42-10v9Zm0-40.85v-8.81l-13.42-10.61v8.94Zm0-40.84v-8.81l-13.42-11.26v9Zm0-40.84v-8.81l-13.42-11.9v9ZM830,863v-8.81q-6.7-6.27-13.42-12.53v8.94Zm0-40.84v-8.81L816.62,800.2v8.95ZM768.43,2557.72v-10.29l-14.62,14.2v10.46Zm0-43.78v-10.29l-14.62,13.51v10.45Zm0-43.78v-10.29l-14.62,12.81v10.46Zm0-43.78v-10.29l-14.62,12.11v10.46Zm0-43.78v-10.29l-14.62,11.42v10.45Zm0-43.78v-10.29l-14.62,10.72v10.46Zm0-43.78v-10.29l-14.62,10v10.46Zm0-43.77V2241l-14.62,9.33v10.45Zm0-43.79v-10.29l-14.62,8.63v10.46Zm0-43.77v-10.3l-14.62,7.93v10.46Zm0-43.78v-10.3l-14.62,7.24v10.45Zm0-43.78v-10.3l-14.62,6.54v10.46Zm0-43.78v-10.3l-14.62,5.84v10.46Zm0-43.78v-10.3l-14.62,5.15v10.45Zm0-43.78v-10.3L753.81,1939v10.46Zm0-43.78v-10.3l-14.62,3.76v10.45Zm0-43.78V1847l-14.62,3v10.45Zm0-43.78v-10.3l-14.62,2.36V1816Zm0-43.78V1759.4l-14.62,1.66v10.45Zm0-43.78v-10.29l-14.62,1V1727Zm0-43.78v-10.29l-14.62.26v10.46Zm0-43.78v-10.29l-14.62-.43v10.45Zm0-43.78v-10.29l-14.62-1.13v10.46Zm0-43.78V1540.5l-14.62-1.83v10.46Zm0-43.78v-10.29l-14.62-2.52v10.45Zm0-43.78v-10.29l-14.62-3.22v10.46Zm0-43.78v-10.29l-14.62-3.92v10.46Zm0-43.78v-10.29l-14.62-4.61v10.45Zm0-43.78V1321.6l-14.62-5.31v10.46Zm0-43.78v-10.29l-14.62-6v10.46Zm0-43.78V1234l-14.62-6.7v10.45Zm0-43.78v-10.29l-14.62-7.4v10.46Zm0-43.78v-10.29l-14.62-8.1v10.46Zm0-43.78V1102.7l-14.62-8.79v10.45Zm0-43.78v-10.29l-14.62-9.49v10.46Zm0-43.78v-10.29L753.81,1005v10.46Zm0-43.78V971.36l-14.62-10.88v10.45Zm0-43.78V927.58L753.81,916v10.46Zm0-43.78V883.8l-14.62-12.28V882Zm0-43.78V840l-14.62-13V837.5Zm0-43.78V796.24l-14.62-13.67V793Zm0-43.78V752.46l-14.62-14.37v10.46Zm-61.61,1856v-11.89L691,2622.17v12.09Zm0-46.72v-11.89L691,2574.7v12.09Zm0-46.71v-11.89L691,2527.23v12.09Zm0-46.72v-11.89L691,2479.77v12.08Zm0-46.71V2420L691,2432.3v12.08Zm0-46.72v-11.89L691,2384.83v12.08Zm0-46.71v-11.89L691,2337.36v12.08Zm0-46.72V2279.8L691,2289.89V2302Zm0-46.72v-11.89q-7.91,4.68-15.83,9.34v12.08Zm0-46.71v-11.89L691,2195V2207Zm0-46.71v-11.9L691,2147.48v12.08Zm0-46.72v-11.89L691,2100v12.08Zm0-46.72v-11.88L691,2052.54v12.08Zm0-46.71v-11.89L691,2005.07v12.08Zm0-46.72v-11.89L691,1957.6v12.08Zm0-46.71v-11.89L691,1910.13v12.08Zm0-46.72v-11.89l-15.83,3.3v12.09Zm0-46.71v-11.89L691,1815.19v12.09Zm0-46.72v-11.89L691,1767.72v12.09Zm0-46.71v-11.89l-15.83,1v12.09Zm0-46.72V1672.5l-15.83.29v12.08Zm0-46.71v-11.89l-15.83-.47v12.08Zm0-46.72v-11.89L691,1577.85v12.08Zm0-46.71v-11.89l-15.83-2v12.08Zm0-46.72v-11.89L691,1482.91V1495Zm0-46.71v-11.89L691,1435.44v12.08Zm0-46.72v-11.89L691,1388v12.08Zm0-46.71V1345.5l-15.83-5v12.08Zm0-46.72v-11.89L691,1293v12.08Zm0-46.71v-11.89L691,1245.56v12.08Zm0-46.72v-11.89L691,1198.09v12.08Zm0-46.71v-11.89l-15.83-8v12.08Zm0-46.72v-11.89L691,1103.15v12.08Zm0-46.71v-11.89L691,1055.68v12.09Zm0-46.72v-11.89L691,1008.21v12.09Zm0-46.71V971.78l-15.83-11v12.09Zm0-46.72V925.06L691,913.28v12.08Zm0-46.71V878.35L691,865.81v12.08Zm0-46.72V831.63L691,818.34v12.08Zm0-46.71V784.92q-7.91-7-15.83-14V783Zm0-46.72V738.2L691,723.4v12.08Zm0-46.71V691.49L691,675.93V688ZM645.21,2679.72v-13.6l-17,16.54v13.82Zm0-49.65v-13.6q-8.52,7.86-17,15.72V2646Zm0-49.65v-13.6l-17,14.91v13.82Zm0-49.65v-13.6l-17,14.1v13.82Zm0-49.65v-13.6l-17,13.29v13.82Zm0-49.65v-13.6l-17,12.48v13.82Zm0-49.65v-13.6l-17,11.66v13.83Zm0-49.65v-13.6l-17,10.85v13.82Zm0-49.65v-13.6l-17,10v13.82Zm0-49.65v-13.6l-17,9.23v13.82Zm0-49.65v-13.6l-17,8.41v13.83Zm0-49.65V2120l-17,7.6v13.83Zm0-49.65v-13.6l-17,6.79v13.82Zm0-49.65v-13.6l-17,6v13.82Zm0-49.65V1971l-17,5.16V1990Zm0-49.65v-13.6l-17,4.35v13.83Zm0-49.65v-13.6l-17,3.54v13.82Zm0-49.65v-13.6l-17,2.73v13.82Zm0-49.65v-13.6l-17,1.92v13.82Zm0-49.65v-13.6l-17,1.1v13.83Zm0-49.65v-13.6l-17,.29v13.82Zm0-49.65v-13.6l-17-.52v13.82Zm0-49.65v-13.6l-17-1.33v13.82Zm0-49.65v-13.6l-17-2.15v13.83Zm0-49.65v-13.6l-17-3v13.83Zm0-49.65v-13.6l-17-3.77v13.82Zm0-49.65v-13.6l-17-4.58v13.82Zm0-49.66v-13.6l-17-5.38V1334Zm0-49.65v-13.6l-17-6.2v13.83Zm0-49.65v-13.6l-17-7v13.82Zm0-49.65v-13.6l-17-7.82v13.82Zm0-49.65V1127l-17-8.63v13.82Zm0-49.65v-13.6l-17-9.45v13.83Zm0-49.65v-13.6l-17-10.26v13.83Zm0-49.65V978l-17-11.07v13.82Zm0-49.65v-13.6l-17-11.88V930.3Zm0-49.65v-13.6l-17-12.69v13.82Zm0-49.65v-13.6l-17-13.51v13.83Zm0-49.65v-13.6l-17-14.32v13.82Zm0-49.65v-13.6l-17-15.13v13.82Zm0-49.65v-13.6l-17-15.94V678Zm0-49.65v-13.6l-17-16.76v13.83ZM583.6,2740.81v-15.42l-18.24,17.69q0,7.85,0,15.68Zm0-52.58V2672.8l-18.24,16.83q0,7.83,0,15.68Zm0-52.59v-15.43l-18.24,16q0,7.85,0,15.68Zm0-52.59v-15.42l-18.24,15.09q0,7.83,0,15.68Zm0-52.58V2515l-18.24,14.22q0,7.84,0,15.68Zm0-52.59v-15.42l-18.24,13.35q0,7.83,0,15.68Zm0-52.58v-15.43l-18.24,12.48q0,7.84,0,15.68Zm0-52.59v-15.42l-18.24,11.61q0,7.83,0,15.68Zm0-52.58V2304.7l-18.24,10.74q0,7.84,0,15.68Zm0-52.59v-15.42L565.36,2262q0,7.83,0,15.68Zm0-52.59v-15.42l-18.24,9q0,7.84,0,15.68Zm0-52.58v-15.43l-18.24,8.14q0,7.83,0,15.68Zm0-52.59v-15.42l-18.24,7.26q0,7.85,0,15.68Zm0-52.58v-15.43l-18.24,6.4q0,7.83,0,15.68Zm0-52.59v-15.42l-18.24,5.52q0,7.85,0,15.68Zm0-52.58V1936.6l-18.24,4.66q0,7.83,0,15.68Zm0-52.59V1884l-18.24,3.78q0,7.85,0,15.68Zm0-52.59v-15.42l-18.24,2.91q0,7.85,0,15.69Zm0-52.58v-15.43l-18.24,2.05q0,7.84,0,15.68Zm0-52.59v-15.42l-18.24,1.17q0,7.85,0,15.68Zm0-52.58v-15.43l-18.24.31q0,7.85,0,15.68Zm0-52.59v-15.42l-18.24-.56q0,7.83,0,15.67Zm0-52.58V1568.5l-18.24-1.43q0,7.85,0,15.68Zm0-52.59v-15.42l-18.24-2.31q0,7.85,0,15.68Zm0-52.59v-15.42l-18.24-3.17q0,7.85,0,15.68Zm0-52.58v-15.43l-18.24-4q0,7.85,0,15.68Zm0-52.59v-15.42l-18.24-4.91q0,7.85,0,15.68Zm0-52.58v-15.43l-18.24-5.78q0,7.85,0,15.68Zm0-52.59V1253l-18.24-6.65q0,7.85,0,15.68Zm0-52.58V1200.4l-18.24-7.52q0,7.84,0,15.68Zm0-52.59v-15.42l-18.24-8.39q0,7.85,0,15.68Zm0-52.58v-15.43L565.36,1086q0,7.85,0,15.68Zm0-52.59v-15.43l-18.24-10.12q0,7.85,0,15.68Zm0-52.59V990.06l-18.24-11q0,7.85,0,15.68Zm0-52.58V937.47l-18.24-11.86q0,7.85,0,15.68Zm0-52.59V884.89l-18.24-12.74q0,7.85,0,15.68Zm0-52.58V832.3l-18.24-13.6q0,7.83,0,15.68Zm0-52.59V779.72l-18.24-14.48q0,7.85,0,15.68Zm0-52.58V727.13l-18.24-15.34q0,7.83,0,15.68Zm0-52.59V674.54l-18.24-16.21q0,7.84,0,15.68Zm0-52.59V622l-18.24-17.08q0,7.83,0,15.68Zm0-52.58V569.37l-18.24-18q0,7.85,0,15.68ZM522,2802v-17.36l-19.45,18.86v17.65Zm0-55.52v-17.36L502.54,2747v17.65Zm0-55.52v-17.36l-19.45,17v17.66Zm0-55.52V2618l-19.45,16.07v17.66Zm0-55.52v-17.36l-19.45,15.15v17.65Zm0-55.52V2507l-19.45,14.23v17.65Zm0-55.52v-17.37l-19.45,13.3v17.65Zm0-55.52v-17.37l-19.45,12.37V2426Zm0-55.52v-17.37l-19.45,11.44v17.66Zm0-55.53V2284.9l-19.45,10.52v17.65Zm0-55.52v-17.36L502.54,2239v17.65Zm0-55.52v-17.36l-19.45,8.66v17.65Zm0-55.52v-17.36l-19.45,7.73v17.66Zm0-55.52v-17.36l-19.45,6.8v17.66Zm0-55.52V2007.3l-19.45,5.88v17.65Zm0-55.52v-17.36l-19.45,5v17.65Zm0-55.52v-17.37l-19.45,4v17.65Zm0-55.52v-17.37l-19.45,3.1v17.66Zm0-55.52v-17.37l-19.45,2.18V1805Zm0-55.52v-17.37l-19.45,1.25v17.65Zm0-55.53v-17.36l-19.45.32v17.65Zm0-55.52v-17.36l-19.45-.61v17.65Zm0-55.52v-17.36l-19.45-1.54v17.66Zm0-55.52v-17.36l-19.45-2.46v17.65Zm0-55.52v-17.36l-19.45-3.39v17.65Zm0-55.52v-17.36l-19.45-4.32v17.65Zm0-55.52v-17.36l-19.45-5.25v17.66Zm0-55.52v-17.37l-19.45-6.17V1297Zm0-55.52V1230l-19.45-7.09v17.65Zm0-55.52v-17.37l-19.45-8v17.65Zm0-55.52V1119l-19.45-9v17.65Zm0-55.53v-17.36l-19.45-9.88v17.66Zm0-55.52v-17.36l-19.45-10.81v17.66Zm0-55.52V952.4l-19.45-11.73v17.65Zm0-55.52V896.88l-19.45-12.66v17.65Zm0-55.52V841.36l-19.45-13.59v17.65Zm0-55.52V785.84l-19.45-14.52V789Zm0-55.52V730.32l-19.45-15.45v17.66Zm0-55.52V674.79l-19.45-16.36v17.65Zm0-55.52V619.27L502.54,602v17.65Zm0-55.52V563.75l-19.45-18.22v17.65Zm0-55.53V508.23l-19.45-19.15v17.66Zm-61.6,2337.56v-19.41l-20.67,20v19.74Zm0-58.45v-19.42l-20.67,19v19.74Zm0-58.46v-19.42l-20.67,18.06v19.74Zm0-58.46v-19.41l-20.67,17.06v19.75Zm0-58.45v-19.42L439.72,2626v19.75Zm0-58.46v-19.41l-20.67,15.09v19.75Zm0-58.45V2493l-20.67,14.11v19.75Zm0-58.46v-19.42l-20.67,13.13v19.75Zm0-58.46v-19.41l-20.67,12.14V2408Zm0-58.45v-19.42l-20.67,11.16v19.74Zm0-58.46v-19.42l-20.67,10.18v19.74Zm0-58.46v-19.41l-20.67,9.19v19.74Zm0-58.45v-19.42l-20.67,8.21v19.74Zm0-58.46v-19.41L439.72,2091v19.74Zm0-58.45v-19.42l-20.67,6.24v19.74Zm0-58.46v-19.42l-20.67,5.26v19.74Zm0-58.46v-19.41l-20.67,4.26v19.75Zm0-58.45V1850l-20.67,3.28V1873Zm0-58.46v-19.42l-20.67,2.3v19.75Zm0-58.46v-19.41l-20.67,1.31v19.74Zm0-58.45v-19.42l-20.67.33v19.74Zm0-58.46v-19.41l-20.67-.66v19.74Zm0-58.45V1557.7l-20.67-1.64v19.74Zm0-58.46v-19.42l-20.67-2.62v19.74Zm0-58.46v-19.41l-20.67-3.61v19.74Zm0-58.45v-19.42l-20.67-4.59v19.74Zm0-58.46v-19.42l-20.67-5.57V1338Zm0-58.46v-19.41l-20.67-6.57v19.75Zm0-58.45V1207l-20.67-7.55v19.75Zm0-58.46v-19.41L439.72,1140v19.75Zm0-58.45v-19.42l-20.67-9.52v19.75Zm0-58.46v-19.42l-20.67-10.5v19.75Zm0-58.46V973.14l-20.67-11.49v19.74Zm0-58.45V914.68l-20.67-12.47V922Zm0-58.46V856.22l-20.67-13.45v19.74Zm0-58.46V797.77l-20.67-14.44v19.74Zm0-58.45V739.31l-20.67-15.42v19.74Zm0-58.46V680.86l-20.67-16.41v19.74Zm0-58.45V622.4L439.72,605v19.74Zm0-58.46V563.94l-20.67-18.38v19.75Zm0-58.46V505.49l-20.67-19.37v19.75Zm0-58.45V447l-20.67-20.35v19.75Zm-61.61,2458v-21.58L376.9,2924V2946Zm0-61.39v-21.58l-21.88,20.13v21.95Zm0-61.39V2780l-21.88,19.1v22Zm0-61.39v-21.59l-21.88,18.06v21.95Zm0-61.4v-21.58l-21.88,17v21.95Zm0-61.39v-21.58l-21.88,16v21.95Zm0-61.39v-21.58l-21.88,14.93v22Zm0-61.39v-21.58L376.9,2487v22Zm0-61.39V2411.7l-21.88,12.84v21.95Zm0-61.39V2350.3l-21.88,11.8v22Zm0-61.39v-21.59l-21.88,10.76v21.95Zm0-61.4v-21.58l-21.88,9.72v22Zm0-61.39v-21.58l-21.88,8.67v21.95Zm0-61.39v-21.58l-21.88,7.63v22Zm0-61.39v-21.58l-21.88,6.59v21.95Zm0-61.39V1982l-21.88,5.55v22Zm0-61.39v-21.59l-21.88,4.51v22Zm0-61.4v-21.58l-21.88,3.47v21.95Zm0-61.39v-21.58l-21.88,2.42v22Zm0-61.39v-21.58l-21.88,1.38v22Zm0-61.39V1675l-21.88.33v22Zm0-61.39v-21.58l-21.88-.71v21.95Zm0-61.39v-21.59l-21.88-1.74v22Zm0-61.39v-21.59L376.9,1488v22Zm0-61.4v-21.58l-21.88-3.83v22Zm0-61.39V1368l-21.88-4.87v21.95Zm0-61.39v-21.58l-21.88-5.92v22Zm0-61.39v-21.58l-21.88-7v22Zm0-61.39v-21.59l-21.88-8v22Zm0-61.39v-21.59l-21.88-9v22Zm0-61.4v-21.58L376.9,1051v22Zm0-61.39V999.69L376.9,988.56v22Zm0-61.39V938.3L376.9,926.13v22Zm0-61.39V876.91L376.9,863.7v21.95Zm0-61.39V815.51L376.9,801.26v22Zm0-61.39V754.12L376.9,738.83v21.95Zm0-61.4V692.73L376.9,676.4v22Zm0-61.39V631.34L376.9,614v21.95Zm0-61.39V570L376.9,551.53v22Zm0-61.39V508.56L376.9,489.09v22Zm0-61.39V447.16l-21.88-20.5v21.95Zm0-61.39V385.77L376.9,364.23v21.95ZM337.17,2985.73v-23.87l-23.08,22.34v24.27Zm0-64.33v-23.87l-23.08,21.24v24.28Q325.63,2932.22,337.17,2921.4Zm0-64.33v-23.86l-23.08,20.14v24.27Zm0-64.33v-23.86l-23.08,19v24.27Zm0-64.32v-23.87l-23.08,17.94v24.28Q325.63,2737.59,337.17,2728.42Zm0-64.33v-23.86l-23.08,16.84v24.27Zm0-64.33V2575.9l-23.08,15.74v24.27Zm0-64.32v-23.87l-23.08,14.64v24.28Q325.63,2543,337.17,2535.44Zm0-64.33v-23.86l-23.08,13.54v24.27Zm0-64.33v-23.86l-23.08,12.44v24.27Zm0-64.32v-23.87l-23.08,11.34v24.28Q325.63,2348.33,337.17,2342.46Zm0-64.33v-23.86l-23.08,10.24v24.27Zm0-64.33v-23.86l-23.08,9.14v24.27Zm0-64.32v-23.87l-23.08,8v24.27Zm0-64.33v-23.87l-23.08,6.95v24.27Zm0-64.33V1997l-23.08,5.84v24.27Zm0-64.32v-23.87l-23.08,4.75v24.27Zm0-64.33V1868.3L314.09,1872v24.27Zm0-64.33V1804l-23.08,2.54v24.27Zm0-64.33v-23.86l-23.08,1.45v24.27Zm0-64.32v-23.87l-23.08.35v24.27Zm0-64.33V1611l-23.08-.76v24.28Zm0-64.33v-23.86l-23.08-1.85v24.27Zm0-64.32v-23.87l-23.08-2.95v24.27Zm0-64.33V1418L314.09,1414v24.28Zm0-64.33v-23.86l-23.08-5.15v24.27Zm0-64.32v-23.87l-23.08-6.25v24.27Zm0-64.33V1225l-23.08-7.36V1242Zm0-64.33v-23.86l-23.08-8.45v24.27Zm0-64.32v-23.87l-23.08-9.55v24.27Zm0-64.33v-23.86l-23.08-10.66v24.28Zm0-64.33V967.73L314.09,956v24.27Zm0-64.32V903.4l-23.08-12.85v24.27Zm0-64.33V839.07q-11.55-7-23.08-14V849.4Zm0-64.33V774.75l-23.08-15V784Zm0-64.32V710.42l-23.08-16.15v24.27Zm0-64.33V646.09l-23.08-17.24v24.27Zm0-64.33V581.77l-23.08-18.35v24.27Zm0-64.33V517.44L314.09,498v24.27Q325.63,531.79,337.17,541.3Zm0-64.32V453.11l-23.08-20.54v24.27Zm0-64.33V388.79l-23.08-21.65v24.27Zm0-64.33V324.46l-23.08-22.75V326Q325.63,337.16,337.17,348.32ZM275.56,3047.1v-26.26l-24.29,23.49V3071Zm0-67.27v-26.25l-24.29,22.33v26.72Zm0-67.26v-26.26l-24.29,21.19v26.71Zm0-67.26v-26.26l-24.29,20v26.71Zm0-67.26v-26.26l-24.29,18.87v26.71Zm0-67.26v-26.26l-24.29,17.71V2729Zm0-67.27v-26.26l-24.29,16.56v26.71Zm0-67.26V2550l-24.29,15.4v26.71Zm0-67.26v-26.26L251.27,2497v26.71Zm0-67.26v-26.26l-24.29,13.08v26.71Zm0-67.27v-26.25l-24.29,11.92v26.71Zm0-67.26V2281l-24.29,10.77v26.71Zm0-67.26v-26.26l-24.29,9.61V2250Zm0-67.26v-26.26l-24.29,8.45v26.71Zm0-67.26v-26.26l-24.29,7.29v26.71Zm0-67.27V2011.9L251.27,2018v26.71Zm0-67.26v-26.26l-24.29,5v26.71Zm0-67.26v-26.26l-24.29,3.83v26.7Zm0-67.26v-26.26l-24.29,2.67v26.71Zm0-67.26v-26.26l-24.29,1.51v26.71Zm0-67.27v-26.26l-24.29.36v26.71Zm0-67.26v-26.26l-24.29-.8v26.71Zm0-67.26v-26.26l-24.29-2v26.71Zm0-67.26v-26.26l-24.29-3.12v26.71Zm0-67.27v-26.25l-24.29-4.28V1429Zm0-67.26v-26.26l-24.29-5.43v26.71Zm0-67.26V1272l-24.29-6.59v26.71Zm0-67.26v-26.26L251.27,1197v26.71Zm0-67.26V1137.5l-24.29-8.91v26.71Zm0-67.27v-26.26l-24.29-10.06v26.71Zm0-67.26V1003l-24.29-11.22v26.71Zm0-67.26V935.71l-24.29-12.38V950Zm0-67.26V868.45l-24.29-13.54v26.71Zm0-67.27V801.19L251.27,786.5v26.71Zm0-67.26V733.92l-24.29-15.84v26.71Zm0-67.26V666.66l-24.29-17v26.71Zm0-67.26V599.4l-24.29-18.16V608Zm0-67.26V532.14l-24.29-19.32v26.71Zm0-67.27V464.87L251.27,444.4v26.71Zm0-67.26V397.61L251.27,376v26.71Zm0-67.26V330.35l-24.29-22.79v26.71Zm0-67.26V263.09l-24.29-23.95v26.71ZM214,3108.52v-28.76l-25.5,24.65v29.27Zm0-70.19v-28.77L188.45,3033v29.26Zm0-70.2v-28.77l-25.5,22.23v29.26Zm0-70.2v-28.76l-25.5,21v29.27Zm0-70.2V2799l-25.5,19.79V2848Zm0-70.19v-28.77l-25.5,18.58v29.26Zm0-70.2v-28.77l-25.5,17.37v29.26Zm0-70.2v-28.76l-25.5,16.14v29.27Zm0-70.2v-28.76l-25.5,14.93v29.27Zm0-70.19V2448l-25.5,13.72V2491Zm0-70.2v-28.77l-25.5,12.51v29.26Zm0-70.2v-28.77l-25.5,11.3v29.26Zm0-70.2v-28.76l-25.5,10.07v29.27Zm0-70.19v-28.77l-25.5,8.86v29.27Zm0-70.2V2097l-25.5,7.65v29.26Zm0-70.2V2026.8l-25.5,6.43v29.26Zm0-70.2V1956.6l-25.5,5.21v29.27Zm0-70.19V1886.4l-25.5,4v29.27Zm0-70.2V1816.2l-25.5,2.79v29.27Zm0-70.2V1746l-25.5,1.58v29.26Zm0-70.2v-28.76l-25.5.36v29.26Zm0-70.19v-28.77l-25.5-.86V1634Zm0-70.2v-28.77l-25.5-2.07v29.27Zm0-70.2v-28.76l-25.5-3.29v29.26Zm0-70.2V1395l-25.5-4.5v29.26Zm0-70.19v-28.77l-25.5-5.71v29.26Zm0-70.2v-28.77l-25.5-6.93V1277Zm0-70.2v-28.77l-25.5-8.14v29.27Zm0-70.2v-28.76l-25.5-9.36v29.26Zm0-70.19V1044l-25.5-10.57v29.26Zm0-70.2V973.83L188.45,962v29.27Zm0-70.2V903.63l-25.5-13V919.9Zm0-70.2V833.44l-25.5-14.22v29.26ZM214,792V763.24l-25.5-15.43v29.26Zm0-70.2V693l-25.5-16.65v29.27Zm0-70.2V622.85L188.45,605v29.27Zm0-70.2V552.65l-25.5-19.08v29.27Zm0-70.19V482.45l-25.5-20.29v29.26Zm0-70.2V412.25l-25.5-21.5V420Zm0-70.2V342.05l-25.5-22.72V348.6Zm0-70.2V271.86l-25.5-23.94v29.27Zm0-70.19V201.66l-25.5-25.15v29.26ZM152.34,3170v-31.39l-26.71,25.81v31.93Zm0-73.13v-31.39L125.63,3090V3122Zm0-73.14v-31.39l-26.71,23.27v31.93Zm0-73.13v-31.39l-26.71,22v31.94Zm0-73.13v-31.39l-26.71,20.72v31.93Zm0-73.13V2773l-26.71,19.44v31.94Zm0-73.14v-31.39L125.63,2718v31.93Zm0-73.13v-31.39l-26.71,16.9v31.94Zm0-73.13v-31.39l-26.71,15.63v31.93Zm0-73.13v-31.4q-13.35,7.18-26.71,14.36v31.94Zm0-73.14v-31.39l-26.71,13.09v31.93Zm0-73.13v-31.39L125.63,2346v31.94Zm0-73.13V2261l-26.71,10.54v31.93Zm0-73.14v-31.39l-26.71,9.27v31.94Zm0-73.13v-31.39l-26.71,8v31.93Zm0-73.13v-31.39l-26.71,6.72v31.94Zm0-73.14V1968.5L125.63,1974v31.93Zm0-73.13v-31.39l-26.71,4.18v31.94Zm0-73.13v-31.39l-26.71,2.91v31.93Zm0-73.13V1749.1l-26.71,1.63v31.94Zm0-73.14V1676l-26.71.37v31.93Zm0-73.13v-31.39l-26.71-.91v31.94Zm0-73.13V1529.7l-26.71-2.18v31.93Zm0-73.13v-31.39l-26.71-3.46v31.94Zm0-73.14v-31.39l-26.71-4.72v31.93Zm0-73.13V1310.3l-26.71-6v31.94Zm0-73.13v-31.39l-26.71-7.27v31.93Zm0-73.14V1164l-26.71-8.54v31.94Zm0-73.13V1090.9l-26.71-9.81V1113Zm0-73.13v-31.39l-26.71-11.09v31.94Zm0-73.13V944.64l-26.71-12.36v31.93Zm0-73.14V871.5l-26.71-13.63v31.94Zm0-73.13V798.37q-13.35-7.46-26.71-14.9V815.4Zm0-73.13V725.24l-26.71-16.18V741Zm0-73.14V652.1l-26.71-17.44v31.93Zm0-73.13V579l-26.71-18.72v31.94Zm0-73.13V505.84l-26.71-20v31.93Zm0-73.13V432.71l-26.71-21.27v31.94Zm0-73.14V359.57L125.63,337V369Zm0-73.13V286.44l-26.71-23.81v31.94Zm0-73.13V213.31l-26.71-25.08v31.93Zm0-73.14V140.17l-26.71-26.35v31.94Zm-61.61,3060v-34.12q-14,13.47-27.91,27v34.72Zm0-76.07v-34.12L62.82,3147v34.72Zm0-76.06v-34.13l-27.91,24.3v34.73Zm0-76.07v-34.13l-27.91,23v34.73Q76.77,3015.13,90.73,3003.35Zm0-76.07v-34.13L62.82,2914.8v34.72Zm0-76.07v-34.13L62.82,2837.4v34.72Zm0-76.07V2741q-14,9.48-27.91,19v34.72Zm0-76.07V2665L62.82,2682.6v34.72Zm0-76.06v-34.13L62.82,2605.2v34.73Zm0-76.07v-34.13l-27.91,15v34.72Zm0-76.07v-34.13l-27.91,13.67v34.72Zm0-76.07v-34.12L62.82,2373v34.72Zm0-76.07v-34.12l-27.91,11v34.73Zm0-76.06v-34.13l-27.91,9.68v34.72Zm0-76.07v-34.13l-27.91,8.35v34.72Zm0-76.07V2056.4l-27.91,7v34.72Zm0-76.07v-34.12L62.82,1986v34.72Zm0-76.07v-34.12l-27.91,4.35v34.73Zm0-76.06V1828.2l-27.91,3V1866Zm0-76.07v-34.13l-27.91,1.7v34.72Zm0-76.07v-34.13l-27.91.37v34.72Zm0-76.07V1600l-27.91-1v34.72Zm0-76.07v-34.12l-27.91-2.3v34.73Zm0-76.07v-34.12l-27.91-3.62V1479Zm0-76.06v-34.13l-27.91-5v34.72Zm0-76.07v-34.13l-27.91-6.28v34.72Zm0-76.07v-34.13L62.82,1212v34.73Zm0-76.07v-34.12l-27.91-8.95v34.73Zm0-76.07v-34.12l-27.91-10.27V1092Zm0-76.06V991.45l-27.91-11.6v34.72Zm0-76.07V915.38L62.82,902.45v34.72Zm0-76.07V839.31L62.82,825.05v34.73Zm0-76.07V763.24q-14-7.79-27.91-15.59v34.73Zm0-76.07V687.18L62.82,670.26V705Zm0-76.06V611.11L62.82,592.86v34.72Zm0-76.07V535L62.82,515.46v34.72Zm0-76.07V459L62.82,438.06v34.73Zm0-76.07V382.9L62.82,360.66v34.73Zm0-76.07V306.84L62.82,283.27V318Q76.77,329.48,90.73,341Zm0-76.07V230.77l-27.91-24.9v34.72Zm0-76.06V154.7L62.82,128.47v34.72Zm0-76.07V78.63L62.82,51.07V85.8ZM29.12,3293.15v-37L0,3284.29v37.63Zm0-79v-37L0,3203.9v37.63Zm0-79v-37L0,3123.51v37.62Zm0-79v-37L0,3043.12v37.62Zm0-79v-37L0,2962.73v37.62Zm0-79v-37L0,2882.34V2920Zm0-79v-37L0,2801.94v37.63Zm0-79v-37L0,2721.55v37.63Zm0-79v-37L0,2641.16v37.63Zm0-79v-37L0,2560.77v37.63Zm0-79v-37L0,2480.38V2518Zm0-79v-37L0,2400v37.63Zm0-79v-37L0,2319.6v37.63Zm0-79v-37L0,2239.21v37.63Zm0-79v-37L0,2158.82v37.63Zm0-79v-37L0,2078.43v37.62Zm0-79v-37L0,1998v37.62Zm0-79v-37L0,1917.65v37.62Zm0-79v-37L0,1837.26v37.62Zm0-79v-37L0,1756.87v37.62Zm0-79v-37L0,1676.47v37.63Zm0-79v-37l-29.12-1v37.63Zm0-79v-37L0,1515.69v37.63Zm0-79v-37L0,1435.3v37.63Zm0-79v-37L0,1354.91v37.63Zm0-79v-37L0,1274.52v37.63Zm0-79v-37L0,1194.13v37.63Zm0-79v-37L0,1113.74v37.63Zm0-79v-37L0,1033.35V1071Q14.57,1076,29.12,1081.05Zm0-79v-37L0,953v37.62Zm0-79v-37L0,872.57v37.62Zm0-79v-37L0,792.18V829.8Zm0-79v-37L0,711.79v37.62Zm0-79v-37L0,631.39V669Zm0-79v-37L0,551v37.63Zm0-79v-37L0,470.61v37.63Zm0-79v-37L0,390.22v37.63Zm0-79v-37L0,309.83v37.63Zm0-79V254L0,229.44v37.63Zm0-79V175L0,149.05v37.63Zm0-79V96L0,68.66v37.63Zm0-79V17L0-11.73V25.89Z" transform="translate(0 11.73)"/></g></g></svg>