<?xml version="1.0" encoding="UTF-8"?>
<svg width="32px" height="32px" viewBox="0 0 32 32" version="1.1" xmlns="http://www.w3.org/2000/svg" xmlns:xlink="http://www.w3.org/1999/xlink">
    <title>FollowIcon_Locker@1x</title>
    <defs>
        <circle id="path-1" cx="19" cy="23" r="9"></circle>
    </defs>
    <g id="FollowIcon_Locker" stroke="none" stroke-width="1" fill="none" fill-rule="evenodd">
        <rect fill="#FFFFFF" x="0" y="0" width="32" height="32"></rect>
        <g id="Follow-Topic-Icon-on-Hover" transform="translate(3.000000, 1.000000)">
            <path d="M22,0.75 C22.8974627,0.75 23.7099627,1.11376864 24.298097,1.70190296 C24.8862314,2.29003728 25.25,3.10253728 25.25,4 L25.25,4 L25.25,24 C25.25,24.8974627 24.8862314,25.7099627 24.298097,26.298097 C23.7099627,26.8862314 22.8974627,27.25 22,27.25 L22,27.25 L4,27.25 C3.10253728,27.25 2.29003728,26.8862314 1.70190296,26.298097 C1.11376864,25.7099627 0.75,24.8974627 0.75,24 L0.75,24 L0.75,4 C0.75,3.10253728 1.11376864,2.29003728 1.70190296,1.70190296 C2.29003728,1.11376864 3.10253728,0.75 4,0.75 L4,0.75 Z" id="Rectangle" stroke="#310F4A" stroke-width="1.5"></path>
            <line x1="5.5" y1="1.5" x2="5.5" y2="26.5" id="Line-2" stroke="#310F4A" stroke-width="1.5" stroke-linecap="square"></line>
            <mask id="mask-2" fill="white">
                <use xlink:href="#path-1"></use>
            </mask>
            <use id="Oval" fill="#FFFFFF" xlink:href="#path-1"></use>
            <circle id="Oval" stroke="#310F4A" stroke-width="1.5" fill="#FFFFFF" mask="url(#mask-2)" cx="18.5" cy="22.5" r="6.75"></circle>
            <line x1="18.5" y1="19.3491073" x2="18.5" y2="25.6508927" id="Line" stroke="#310F4A" stroke-width="1.5" stroke-linecap="round"></line>
            <line x1="15.5" y1="22.5" x2="21.3" y2="22.5" id="Line" stroke="#310F4A" stroke-width="1.5" stroke-linecap="round"></line>
        </g>
    </g>
</svg>