<?xml version="1.0" encoding="UTF-8"?>
<svg width="32px" height="32px" viewBox="0 0 32 32" version="1.1" xmlns="http://www.w3.org/2000/svg" xmlns:xlink="http://www.w3.org/1999/xlink">
    <title>RemoveHoverIcon_Locker</title>
    <g id="RemoveHoverIcon_Locker" stroke="none" stroke-width="1" fill="none" fill-rule="evenodd">
        <rect fill="#FFFFFF" x="0" y="0" width="32" height="32"></rect>
        <g id="Group-2" transform="translate(5.000000, -1.000000)">
            <path d="M20.0869565,3.04825585 C20.5421654,3.04825585 20.9529026,3.22696897 21.250741,3.51159313 C21.5611786,3.80825751 21.75,4.2189919 21.75,4.67079014 L21.75,4.67079014 L21.75,28.9256288 C21.75,29.3774066 21.5611875,29.7881678 21.2507566,30.0848573 C20.95291,30.3695195 20.5421646,30.5482558 20.0869565,30.5482558 C19.7631213,30.5482558 19.4468299,30.4557414 19.1775082,30.2841596 L19.1775082,30.2841596 L10.6034825,24.8217462 L1.8224918,30.2841596 C1.44638047,30.5237758 1.00431976,30.5964637 0.593184537,30.5178848 C0.175699442,30.4380923 -0.207498092,30.2032169 -0.461766108,29.8387366 C-0.650405821,29.5683312 -0.75,29.2503985 -0.75,28.9256288 L-0.75,28.9256288 L-0.75,4.67079014 C-0.75,4.2189919 -0.561178613,3.80825751 -0.250740976,3.51159313 C0.0470974385,3.22696897 0.457834575,3.04825585 0.913043478,3.04825585 L0.913043478,3.04825585 Z" id="Saved" stroke="#310F4A" stroke-width="1.5" stroke-linejoin="round"></path>
            <circle id="Oval" fill="#FFFFFF" cx="19.4658557" cy="9" r="9"></circle>
            <circle id="Oval" stroke="#310F4A" stroke-width="1.5" cx="19.4658557" cy="9" r="6.75"></circle>
            <line x1="21.693242" y1="6.77261364" x2="17.2384693" y2="11.2273864" id="Line" stroke="#310F4A" stroke-width="1.5" stroke-linecap="round"></line>
            <line x1="17.2384693" y1="6.77261364" x2="21.693242" y2="11.2273864" id="Line" stroke="#310F4A" stroke-width="1.5" stroke-linecap="round"></line>
        </g>
    </g>
</svg>