<?xml version="1.0" encoding="UTF-8"?>
<svg width="32px" height="32px" viewBox="0 0 32 32" version="1.1" xmlns="http://www.w3.org/2000/svg" xmlns:xlink="http://www.w3.org/1999/xlink">
    <title>SubscribeIcon_Locker</title>
    <g id="SubscribeIcon_Locker" stroke="none" stroke-width="1" fill="none" fill-rule="evenodd">
        <rect fill="#FFFFFF" x="0" y="0" width="32" height="32"></rect>
        <g id="Subscribe-to-series-icon-on-hover" transform="translate(1.000000, 2.000000)">
            <path d="M23.8518519,0.75 C24.7934316,0.75 25.6470003,1.11607372 26.2644339,1.7114561 C26.8718155,2.29714556 27.25,3.10556445 27.25,4 L27.25,4 L27.25,21 C27.25,21.8944355 26.8718155,22.7028544 26.2644339,23.2885439 C25.6470003,23.8839263 24.7934316,24.25 23.8518519,24.25 L23.8518519,24.25 L4.14814815,24.25 C3.20656838,24.25 2.35299972,23.8839263 1.73556614,23.2885439 C1.12818448,22.7028544 0.75,21.8944355 0.75,21 L0.75,21 L0.75,4 C0.75,3.10556445 1.12818448,2.29714556 1.73556614,1.7114561 C2.35299972,1.11607372 3.20656838,0.75 4.14814815,0.75 L4.14814815,0.75 Z" id="Rectangle" stroke="#310F4A" stroke-width="1.5"></path>
            <polyline id="Line" stroke="#310F4A" stroke-width="1.5" stroke-linecap="round" stroke-linejoin="round" points="2.95688115 1.94172607 14.3837956 10.9417261 24.9568811 1.99675814"></polyline>
            <circle id="Oval" fill="#FFFFFF" cx="23" cy="22" r="9"></circle>
            <circle id="Oval" stroke="#310F4A" stroke-width="1.5" fill="#FFFFFF" cx="23" cy="22" r="6.75"></circle>
            <line x1="23" y1="18.85" x2="23" y2="25.15" id="Line" stroke="#310F4A" stroke-width="1.5" stroke-linecap="round"></line>
            <line x1="19.85" y1="22" x2="26.15" y2="22" id="Line" stroke="#310F4A" stroke-width="1.5" stroke-linecap="round"></line>
        </g>
    </g>
</svg>