<?xml version="1.0" encoding="UTF-8"?>
<svg class="thumbs" width="40px" height="39px" viewBox="0 0 40 39" version="1.1" xmlns="http://www.w3.org/2000/svg" xmlns:xlink="http://www.w3.org/1999/xlink">
    <title>Static</title>
    <g id="Upvote" stroke="none" stroke-width="1" fill="none" fill-rule="evenodd">
        <g transform="translate(-119.000000, -254.000000)" fill="#aaaaaa" fill-rule="nonzero" id="Thumbs">
            <g transform="translate(119.000000, 195.000000)">
                <g id="Static" transform="translate(0.000000, 59.000000)">
                    <path d="M11.6864608,37.3206651 C11.6864608,37.8432304 11.2589074,38.2707838 10.736342,38.2707838 L0.950118765,38.2707838 C0.427553444,38.2707838 0,37.8432304 0,37.3206651 L0,19.0783848 C0,18.5558195 0.427553444,18.128266 0.950118765,18.128266 L10.736342,18.128266 C11.2589074,18.128266 11.6864608,18.5558195 11.6864608,19.0783848 L11.6864608,37.3206651 Z" id="Path"></path>
                    <g id="Layer_5" transform="translate(13.301663, 0.000000)">
                        <path d="M0,19.3634204 C0,18.8408551 0.389548694,18.2327791 0.855106888,18.0047506 L0.940617577,17.9667458 C1.41567696,17.7387173 1.97624703,17.1686461 2.18527316,16.6935867 L6.26128266,7.50593824 C6.47030879,7.03087886 6.65083135,6.21377672 6.65083135,5.6912114 L6.65083135,1.79572447 C6.65083135,1.27315914 7.03087886,0.64608076 7.48693587,0.399049881 C7.48693587,0.399049881 8.42755344,-0.104513064 9.88123515,0.180522565 C11.7814727,0.560570071 15.8954869,0.541567696 12.2470309,11.4869359 C12.1710214,11.7244656 13.8337292,12.608076 23.9334917,12.8171021 C24.3325416,12.8266033 25.0926366,13.2066508 24.9501188,13.5771971 L12.3990499,34.7933492 C12.1330166,35.239905 11.4869359,35.6104513 10.9643705,35.6104513 L5.32066508,35.6104513 C4.79809976,35.6104513 3.96199525,35.4774347 3.46793349,35.3159145 L0.902612827,34.47981 C0.408551069,34.3182898 0,33.7577197 0,33.2351544 L0,19.3634204 Z" id="Path"></path>
                    </g>
                    <path d="M39.9239905,15.6579572 C39.9239905,17.2256532 38.5558195,18.5178147 36.8836105,18.5178147 L27.3634204,18.5178147 C25.6912114,18.5178147 24.3230404,17.2351544 24.3230404,15.6579572 C24.3230404,14.0807601 25.6912114,12.7980998 27.3634204,12.7980998 L36.8836105,12.7980998 C38.5558195,12.807601 39.9239905,14.0902613 39.9239905,15.6579572 Z" id="Path"></path>
                    <path d="M38.2897862,21.3776722 C38.2897862,22.9453682 36.9216152,24.2375297 35.2494062,24.2375297 L25.7292162,24.2375297 C24.0570071,24.2375297 22.6888361,22.9548694 22.6888361,21.3776722 C22.6888361,19.8004751 24.0570071,18.5178147 25.7292162,18.5178147 L35.2494062,18.5178147 C36.9216152,18.5178147 38.2897862,19.8004751 38.2897862,21.3776722 Z" id="Path"></path>
                    <path d="M37.111639,27.087886 C37.111639,28.6555819 35.7434679,29.9477435 34.0712589,29.9477435 L24.5510689,29.9477435 C22.8788599,29.9477435 21.5106888,28.6650831 21.5106888,27.087886 C21.5106888,25.5106888 22.8788599,24.2280285 24.5510689,24.2280285 L34.0712589,24.2280285 C35.7434679,24.2280285 37.111639,25.52019 37.111639,27.087886 Z" id="Path"></path>
                    <path d="M35.2874109,32.7505938 C35.2874109,34.3182898 33.9192399,35.6104513 32.2470309,35.6104513 L22.7268409,35.6104513 C21.0546318,35.6104513 19.6864608,34.327791 19.6864608,32.7505938 C19.6864608,31.1733967 21.0546318,29.8907363 22.7268409,29.8907363 L32.2470309,29.8907363 C33.9192399,29.8907363 35.2874109,31.1828979 35.2874109,32.7505938 Z" id="Path"></path>
                </g>
            </g>
        </g>
    </g>
</svg>
