<?xml version="1.0" encoding="UTF-8"?>
<svg class="thumbs-active" width="40px" height="55px" viewBox="0 0 40 55" version="1.1" xmlns="http://www.w3.org/2000/svg" xmlns:xlink="http://www.w3.org/1999/xlink">
    <title>Active State</title>
    <g id="Upvote" stroke="none" stroke-width="1" fill="#46166B" fill-rule="evenodd">
        <g transform="translate(-968.000000, -238.000000)" fill="#46166B" fill-rule="nonzero" id="Thumbs">
            <g transform="translate(119.000000, 195.000000)">
                <g id="After-Click" transform="translate(849.000000, 0.000000)">
                    <g id="Active-State" transform="translate(0.000000, 43.000000)">
                        <path d="M11.6864608,53.1306413 C11.6864608,53.6532067 11.2589074,54.0807601 10.736342,54.0807601 L0.950118765,54.0807601 C0.427553444,54.0807601 0,53.6532067 0,53.1306413 L0,34.888361 C0,34.3657957 0.427553444,33.9382423 0.950118765,33.9382423 L10.736342,33.9382423 C11.2589074,33.9382423 11.6864608,34.3657957 11.6864608,34.888361 L11.6864608,53.1306413 Z" id="Path" fill="#46166B"></path>
                        <g id="Layer_5" transform="translate(13.301663, 15.866983)" fill="#46166B">
                            <path d="M0,19.3064133 C0,18.783848 0.389548694,18.175772 0.855106888,17.9477435 L0.940617577,17.9097387 C1.41567696,17.6817102 1.97624703,17.111639 2.18527316,16.6365796 L6.26128266,7.44893112 C6.47030879,6.97387173 6.65083135,6.1567696 6.65083135,5.63420428 L6.65083135,1.73871734 C6.65083135,1.21615202 7.03087886,0.589073634 7.48693587,0.342042755 C7.48693587,0.342042755 8.42755344,-0.16152019 9.88123515,0.123515439 C11.7814727,0.503562945 15.8954869,0.48456057 12.2470309,11.4299287 C12.1710214,11.6674584 13.8337292,12.5510689 23.9334917,12.760095 C24.3325416,12.7695962 25.0926366,13.1496437 24.9501188,13.52019 L12.3990499,34.736342 C12.1330166,35.1828979 11.4869359,35.5534442 10.9643705,35.5534442 L5.32066508,35.5534442 C4.79809976,35.5534442 3.96199525,35.4204276 3.46793349,35.2589074 L0.902612827,34.4228029 C0.408551069,34.2612827 0,33.7007126 0,33.1781473 L0,19.3064133 Z" id="Path"></path>
                        </g>
                            <path d="M39.9239905,31.4774347 C39.9239905,33.0451306 38.5558195,34.3372922 36.8836105,34.3372922 L27.3634204,34.3372922 C25.6912114,34.3372922 24.3230404,33.0546318 24.3230404,31.4774347 C24.3230404,29.9097387 25.6912114,28.6175772 27.3634204,28.6175772 L36.8836105,28.6175772 C38.5558195,28.6175772 39.9239905,29.9002375 39.9239905,31.4774347 Z" id="Path" fill="#46166B"></path>
                            <path d="M38.2897862,37.1876485 C38.2897862,38.7553444 36.9216152,40.0475059 35.2494062,40.0475059 L25.7292162,40.0475059 C24.0570071,40.0475059 22.6888361,38.7648456 22.6888361,37.1876485 C22.6888361,35.6104513 24.0570071,34.327791 25.7292162,34.327791 L35.2494062,34.327791 C36.9216152,34.327791 38.2897862,35.6104513 38.2897862,37.1876485 Z" id="Path" fill="#46166B"></path>
                            <path d="M37.111639,42.8978622 C37.111639,44.4655582 35.7434679,45.7577197 34.0712589,45.7577197 L24.5510689,45.7577197 C22.8788599,45.7577197 21.5106888,44.4750594 21.5106888,42.8978622 C21.5106888,41.3301663 22.8788599,40.0380048 24.5510689,40.0380048 L34.0712589,40.0380048 C35.7434679,40.0475059 37.111639,41.3301663 37.111639,42.8978622 Z" id="Path" fill="#46166B"></path>
                            <path d="M35.2874109,48.5605701 C35.2874109,50.128266 33.9192399,51.4204276 32.2470309,51.4204276 L22.7268409,51.4204276 C21.0546318,51.4204276 19.6864608,50.1377672 19.6864608,48.5605701 C19.6864608,46.9833729 21.0546318,45.7007126 22.7268409,45.7007126 L32.2470309,45.7007126 C33.9192399,45.7007126 35.2874109,46.9928741 35.2874109,48.5605701 Z" id="Path" fill="#46166B"></path>
                        <g id="Layer_6" fill="#46166B">
                            <path d="M23.7339667,12.8836105 C22.5178147,12.8836105 21.52019,11.8859857 21.52019,10.6698337 L21.52019,2.27078385 C21.52019,1.05463183 22.5178147,0.0570071259 23.7339667,0.0570071259 L24.0190024,0.0570071259 C25.2351544,0.0570071259 26.2327791,1.05463183 26.2327791,2.27078385 L26.2327791,10.6603325 C26.2327791,11.8764846 25.2351544,12.8741093 24.0190024,12.8741093 L23.7339667,12.8741093 L23.7339667,12.8836105 Z" id="Prong1" fill="#46166B"></path>
                            <path d="M18.2137767,15.543943 C17.4346793,16.4750594 16.0285036,16.5985748 15.087886,15.8194774 L8.65558195,10.4228029 C7.72446556,9.64370546 7.60095012,8.23752969 8.38004751,7.29691211 L8.56057007,7.0783848 C9.33966746,6.14726841 10.7458432,6.02375297 11.6864608,6.80285036 L18.1187648,12.1995249 C19.0498812,12.9786223 19.1733967,14.3847981 18.3942993,15.3254157 L18.2137767,15.543943 Z" id="Prong2" fill="#46166B"></path>
                            <path d="M29.1971496,15.2304038 C28.4180523,14.2992874 28.5320665,12.8931116 29.4726841,12.1045131 L35.9049881,6.70783848 C36.8361045,5.92874109 38.2422803,6.04275534 39.0308789,6.98337292 L39.2114014,7.20190024 C39.9904988,8.13301663 39.8764846,9.5391924 38.935867,10.327791 L32.5035629,15.7244656 C31.5724466,16.5035629 30.1662708,16.3895487 29.3776722,15.4489311 L29.1971496,15.2304038 Z" id="Prong3" fill="#46166B"></path>
                        </g>
                    </g>
                </g>
            </g>
        </g>
    </g>
</svg>
