<?xml version="1.0" encoding="UTF-8"?>
<svg width="32px" height="32px" viewBox="0 0 32 32" version="1.1" xmlns="http://www.w3.org/2000/svg" xmlns:xlink="http://www.w3.org/1999/xlink">
    <title>UnsubscribeIcon_Locker</title>
    <g id="UnsubscribeIcon_Locker" stroke="none" stroke-width="1" fill="none" fill-rule="evenodd">
        <rect fill="#FFFFFF" x="0" y="0" width="32" height="32"></rect>
        <g id="Unsubscribe-Icon" transform="translate(1.000000, 0.500000)">
            <path d="M23.8518519,0.75 C24.7893607,0.75 25.6377636,1.13446872 26.2520203,1.75499332 C26.8690188,2.37828774 27.25,3.23953704 27.25,4.19047619 L27.25,4.19047619 L27.25,22 C27.25,22.9509392 26.8690188,23.8121885 26.2520203,24.4354829 C25.6377636,25.0560075 24.7893607,25.4404762 23.8518519,25.4404762 L23.8518519,25.4404762 L4.14814815,25.4404762 C3.21063931,25.4404762 2.36223638,25.0560075 1.74797971,24.4354829 C1.13098119,23.8121885 0.75,22.9509392 0.75,22 L0.75,22 L0.75,4.19047619 C0.75,3.23953704 1.13098119,2.37828774 1.74797971,1.75499332 C2.36223638,1.13446872 3.21063931,0.75 4.14814815,0.75 L4.14814815,0.75 Z" id="Rectangle" stroke="#310F4A" stroke-width="1.5" fill="#A28AB5"></path>
            <polyline id="Line" stroke="#310F4A" stroke-width="1.5" stroke-linecap="round" stroke-linejoin="round" points="2.95688115 2.03418921 14.3837956 12.5103797 24.9568811 2.09824771"></polyline>
            <ellipse id="Oval" fill="#FFFFFF" cx="23" cy="23.047619" rx="9" ry="9.42857143"></ellipse>
            <ellipse id="Oval" stroke="#310F4A" stroke-width="1.5" fill="#A28AB5" cx="23" cy="23.047619" rx="6.75" ry="7.10714286"></ellipse>
            <line x1="25.2273864" y1="20.7141667" x2="20.7726136" y2="25.3810714" id="Line" stroke="#310F4A" stroke-width="1.5" stroke-linecap="round"></line>
            <line x1="20.7726136" y1="20.7141667" x2="25.2273864" y2="25.3810714" id="Line" stroke="#310F4A" stroke-width="1.5" stroke-linecap="round"></line>
        </g>
    </g>
</svg>