<svg version="1.2" xmlns="http://www.w3.org/2000/svg" viewBox="0 0 1474 1524" width="1474" height="1524">
	<title>Doximity (1)-svg</title>
	<style>
		.s0 { fill: #231f20 } 
		.s1 { fill: #5190cc } 
	</style>
	<path id="Layer" fill-rule="evenodd" class="s0" d="m1473.6 288.8v1178.4c0 20.9-16.9 37.8-37.8 37.8h-121.6c-21 0-37.9-16.9-37.9-37.8v-128.5l-11.4 16.3c-80.4 113.5-181.1 169-306.7 169-202.7 0-418.2-165-418.2-469.2v-3.4c0-308.3 210.1-469.2 418.2-469.2 124.9 0 225.6 52.1 306.7 158.9l11.4 14.9v-467.2c0-21 16.9-37.9 37.9-37.9h121.6c20.9 0 37.8 16.9 37.8 37.9zm-465.4 1065.5c152.6 0 271.5-131.9 271.5-299.5v-3.4c0-171-116.8-299.5-271.5-299.5-156.1 0-269.6 125.8-269.6 299.5v3.4c0 170.4 116.2 298.8 269.6 299.5z"/>
	<g id="Layer">
		<path id="Layer" class="s1" d="m279.9 839.1c-4.7-52.7-3.3-116.3 21.6-203.5 21-70.3 71-148 129.1-202.8 56.7-53.4 133.7-95.3 217.5-114.3 79.7-18.2 146.6-16.9 197.3-10.8 7.4 0 12.8 3.4 15.5 6.8 5.4 5.4 6.1 17.6 3.4 20.9-2.7 2.8-9.5 5.5-16.2 5.5-110.2 6.7-228.4 66.2-341.9 173-104 98.1-178.3 222.5-192.5 330-0.7 6.7-3.4 12.8-6.8 15.5-3.3 2.7-16.2 2-20.9-3.4-2.7-4-5.4-9.4-6.1-16.9zm-276.9-125.7c-6.1-69.7-4.8-154.8 29-271.1 27.7-94 93.9-196.8 171.6-269.8 75.7-71 177.7-126.4 289.8-152.1 106.1-24.3 195.2-22.3 262.1-14.9 9.5 0 16.9 4.8 20.9 8.8 6.8 7.5 8.2 23.7 4.1 27.7-3.4 3.4-12.2 6.8-20.9 7.5-146.6 9.4-304 88.5-454.7 230.5-139.1 131.2-237.8 296.1-256.7 439.5-1.3 8.7-4.7 16.9-8.8 20.9-4 4.1-20.9 2.7-28.3-4.7-4.1-4.1-7.5-11.5-8.1-22.3z"/>
	</g>
</svg>