<svg width="24" height="25" viewBox="0 0 24 25" fill="none" xmlns="http://www.w3.org/2000/svg">
<g id="ArrowRight">
<path id="Vector" d="M21.0459 13.2959L14.2959 20.0459C14.0846 20.2573 13.7979 20.376 13.4991 20.376C13.2002 20.376 12.9135 20.2573 12.7022 20.0459C12.4908 19.8346 12.3721 19.5479 12.3721 19.249C12.3721 18.9502 12.4908 18.6635 12.7022 18.4522L17.5312 13.625H3.75C3.45163 13.625 3.16548 13.5065 2.9545 13.2955C2.74353 13.0845 2.625 12.7984 2.625 12.5C2.625 12.2016 2.74353 11.9155 2.9545 11.7045C3.16548 11.4935 3.45163 11.375 3.75 11.375H17.5312L12.7041 6.54498C12.4927 6.33364 12.374 6.04699 12.374 5.74811C12.374 5.44922 12.4927 5.16258 12.7041 4.95123C12.9154 4.73989 13.2021 4.62115 13.5009 4.62115C13.7998 4.62115 14.0865 4.73989 14.2978 4.95123L21.0478 11.7012C21.1527 11.8059 21.2359 11.9302 21.2926 12.0671C21.3493 12.204 21.3784 12.3508 21.3782 12.499C21.3781 12.6471 21.3486 12.7938 21.2916 12.9306C21.2346 13.0674 21.1511 13.1915 21.0459 13.2959Z" fill="#7229D1"/>
</g>
</svg>
