<?xml version="1.0" encoding="UTF-8"?>
<svg width="32px" height="32px" viewBox="0 0 32 32" version="1.1" xmlns="http://www.w3.org/2000/svg" xmlns:xlink="http://www.w3.org/1999/xlink">
    <!-- Generator: Sketch 51.1 (57501) - http://www.bohemiancoding.com/sketch -->
    <title>Fill 183</title>
    <desc>Created with Sketch.</desc>
    <defs></defs>
    <g id="Social-Icons" stroke="none" stroke-width="1" fill="none" fill-rule="evenodd">
        <g transform="translate(-295.000000, -180.000000)" fill="#9073A6" id="Fill-183">
            <path d="M315.155,190.656 L313.649,190.657 C312.468,190.657 312.239,191.218 312.239,192.041 L312.239,193.857 L315.056,193.857 L314.689,196.702 L312.239,196.702 L312.239,204 L309.302,204 L309.302,196.702 L306.846,196.702 L306.846,193.857 L309.302,193.857 L309.302,191.76 C309.302,189.325 310.789,188 312.96,188 C314,188 314.894,188.077 315.155,188.112 L315.155,190.656 Z M311,180 C302.164,180 295,187.163 295,196 C295,204.836 302.164,212 311,212 C319.837,212 327,204.836 327,196 C327,187.163 319.837,180 311,180 L311,180 Z"></path>
        </g>
    </g>
</svg>