<?xml version="1.0" encoding="UTF-8"?>
<svg width="32px" height="32px" viewBox="0 0 32 32" version="1.1" xmlns="http://www.w3.org/2000/svg" xmlns:xlink="http://www.w3.org/1999/xlink">
    <!-- Generator: Sketch 51.1 (57501) - http://www.bohemiancoding.com/sketch -->
    <title>Fill 184</title>
    <desc>Created with Sketch.</desc>
    <defs></defs>
    <g id="Social-Icons" stroke="none" stroke-width="1" fill="none" fill-rule="evenodd">
        <g transform="translate(-343.000000, -180.000000)" fill="#9073A6" id="Fill-184">
            <path d="M365.362,192.737 C365.368,192.878 365.372,193.019 365.372,193.162 C365.372,197.499 362.07,202.501 356.032,202.501 C354.178,202.501 352.453,201.958 351,201.027 C351.257,201.057 351.518,201.072 351.783,201.072 C353.321,201.072 354.736,200.548 355.86,199.667 C354.423,199.641 353.211,198.692 352.793,197.388 C352.994,197.426 353.199,197.446 353.411,197.446 C353.71,197.446 354,197.406 354.276,197.331 C352.774,197.03 351.643,195.703 351.643,194.113 L351.643,194.071 C352.085,194.317 352.592,194.465 353.13,194.482 C352.249,193.893 351.669,192.888 351.669,191.75 C351.669,191.148 351.831,190.584 352.114,190.099 C353.733,192.085 356.152,193.392 358.88,193.529 C358.824,193.289 358.795,193.038 358.795,192.781 C358.795,190.968 360.265,189.498 362.077,189.498 C363.022,189.498 363.875,189.897 364.473,190.535 C365.221,190.388 365.924,190.115 366.558,189.739 C366.313,190.505 365.792,191.148 365.115,191.555 C365.779,191.475 366.411,191.299 367,191.038 C366.56,191.696 366.003,192.274 365.362,192.737 M359,180 C350.163,180 343,187.163 343,196 C343,204.836 350.163,212 359,212 C367.837,212 375,204.836 375,196 C375,187.163 367.837,180 359,180"></path>
        </g>
    </g>
</svg>