<?xml version="1.0" encoding="utf-8"?>
<!-- Generator: Adobe Illustrator 21.1.0, SVG Export Plug-In . SVG Version: 6.00 Build 0)  -->
<svg version="1.1" id="Layer_1" xmlns="http://www.w3.org/2000/svg" xmlns:xlink="http://www.w3.org/1999/xlink" x="0px" y="0px"
	 viewBox="0 0 234 234" style="enable-background:new 0 0 234 234;" xml:space="preserve">
<style type="text/css">
	.st0{fill:#46166B;}
	.st1{fill:#FAA633;}
</style>
<path class="st0" d="M205.6,48.5L161.1,0.4l-115.2,0c-6,0-10.9,4.9-10.9,10.9v19.8h-4.7c-1,0-1.8,0.8-1.8,1.8v30
	c0,1,0.8,1.8,1.8,1.8h4.7v157.9c0,6,4.9,10.9,10.9,10.9h148.9c6,0,10.9-4.9,10.9-10.9v-161l0,0L205.6,48.5z M160.1,12.4l34.2,36.9
	h-28.9c-2.9,0-5.3-2.4-5.3-5.3V12.4z M43.3,39.2h4.6l1.5,3.4c0.5,1.1,0.8,2,1.3,3.1h0.1c0.4-1.2,0.7-2,1.1-3.1l1.4-3.4h4.5l-4.8,9.3
	l5,9.6h-4.6l-1.6-3.4c-0.6-1.2-1-2.2-1.5-3.4h-0.1c-0.4,1.1-0.8,2.2-1.3,3.4l-1.4,3.4h-4.5l4.9-9.6L43.3,39.2z M195.5,219.4
	c0,2.9-2.4,5.3-5.3,5.3H50.3c-2.9,0-5.3-2.4-5.3-5.3V64.8h59.1c1,0,1.8-0.8,1.8-1.8v-30c0-1-0.8-1.8-1.8-1.8H45V14.6
	c0-2.9,2.4-5.3,5.3-5.3h99.6v38c0,6,4.9,10.9,10.9,10.9h34.6V219.4z M71.8,54.7v3.4H61.1V39.2h4.1v15.4H71.8z M79.4,50.1
	c-3-1.3-4.7-3.1-4.7-5.5c0-3.2,2.5-5.6,6.8-5.6c1.9,0,3.3,0.4,4.3,0.9l-0.8,3.3c-0.7-0.3-1.9-0.8-3.5-0.8c-1.8,0-2.6,0.9-2.6,1.8
	c0,1.2,0.9,1.7,3.2,2.7c3.1,1.3,4.4,3.1,4.4,5.6c0,3.2-2.4,5.8-7.2,5.8c-2,0-3.9-0.5-4.8-1l0.8-3.4c1,0.5,2.7,1,4.3,1
	c1.9,0,2.9-0.8,2.9-2.1S81.4,51,79.4,50.1z"/>
<rect x="59" y="88" class="st1" width="26" height="11"/>
<rect x="121.7" y="88" class="st1" width="26.8" height="11"/>
<rect x="90.2" y="88" class="st1" width="26.3" height="11"/>
<rect x="153.7" y="88" class="st1" width="26.4" height="11"/>
<rect x="59" y="106" class="st1" width="26" height="11"/>
<rect x="121.7" y="106" class="st1" width="26.8" height="11"/>
<rect x="90.2" y="106" class="st1" width="26.3" height="11"/>
<rect x="153.7" y="106" class="st1" width="26.4" height="11"/>
<rect x="59" y="124" class="st1" width="26" height="11"/>
<rect x="121.7" y="124" class="st1" width="26.8" height="11"/>
<rect x="90.2" y="124" class="st1" width="26.3" height="11"/>
<rect x="153.7" y="124" class="st1" width="26.4" height="11"/>
<rect x="59" y="142" class="st1" width="26" height="11"/>
<rect x="121.7" y="142" class="st1" width="26.8" height="11"/>
<rect x="90.2" y="142" class="st1" width="26.3" height="11"/>
<rect x="153.7" y="142" class="st1" width="26.4" height="11"/>
<rect x="59" y="160" class="st1" width="26" height="11"/>
<rect x="121.7" y="160" class="st1" width="26.8" height="11"/>
<rect x="90.2" y="160" class="st1" width="26.3" height="11"/>
<rect x="153.7" y="160" class="st1" width="26.4" height="11"/>
<rect x="59" y="178" class="st1" width="26" height="11"/>
<rect x="121.7" y="178" class="st1" width="26.8" height="11"/>
<rect x="90.2" y="178" class="st1" width="26.3" height="11"/>
<rect x="153.7" y="178" class="st1" width="26.4" height="11"/>
<rect x="59" y="196" class="st1" width="26" height="11"/>
<rect x="121.7" y="196" class="st1" width="26.8" height="11"/>
<rect x="90.2" y="196" class="st1" width="26.3" height="11"/>
<rect x="153.7" y="196" class="st1" width="26.4" height="11"/>
</svg>
