<?xml version="1.0" encoding="UTF-8"?>
<svg width="58px" height="57px" viewBox="0 0 58 57" version="1.1" xmlns="http://www.w3.org/2000/svg"
     xmlns:xlink="http://www.w3.org/1999/xlink">
    <!-- Generator: Sketch 51.3 (57544) - http://www.bohemiancoding.com/sketch -->
    <title>Fill 4</title>
    <desc>Created with Sketch.</desc>
    <defs></defs>
    <g id="Global" stroke="none" stroke-width="1" fill="none" fill-rule="evenodd">
        <g id="Icons" transform="translate(-768.000000, -480.000000)" fill="#9073A6">
            <g id="Column-3-Copy" transform="translate(763.000000, 49.000000)">
                <g id="Social-Media" transform="translate(1.000000, 200.895000)">
                    <path d="M53.0889,260.0107 L49.4609,260.0107 L49.4609,263.6377 L45.8479,263.6377 L45.8479,260.0107 L42.2199,260.0107 L42.2199,256.4087 L45.8479,256.4087 L45.8479,252.7817 L49.4609,252.7817 L49.4609,256.4087 L53.0889,256.4087 L53.0889,260.0237 L53.0889,260.0107 Z M35.6509,266.2327 C32.4879,270.6717 26.1519,271.9767 21.1939,270.1037 C14.6719,267.5047 11.4909,260.1097 14.0899,253.5867 C16.0029,248.7847 20.6329,245.6197 25.8019,245.5787 C28.9149,245.5687 31.9259,246.6827 34.2819,248.7167 C33.2649,249.8807 32.1879,250.9917 31.0559,252.0467 C28.1639,250.0457 24.0609,249.4647 21.1819,251.7887 C17.6049,254.5027 16.9049,259.6047 19.6199,263.1827 C19.9769,263.6527 20.3829,264.0807 20.8329,264.4637 C24.7049,267.9747 31.9979,266.2327 33.0679,260.8627 C30.6549,260.8627 28.2289,260.8627 25.8019,260.7847 L25.8019,256.4477 L37.9479,256.4477 C38.3669,259.8787 37.5539,263.3457 35.6509,266.2327 Z M33.0679,230.2067 C17.3859,230.2067 4.6729,242.9207 4.6729,258.6037 C4.6729,274.2857 17.3859,286.9997 33.0679,286.9997 C48.7519,286.9997 61.4659,274.2857 61.4659,258.6037 C61.4659,242.9207 48.7519,230.2067 33.0679,230.2067 Z"
                          id="Fill-4"></path>
                </g>
            </g>
        </g>
    </g>
</svg>
