<?xml version="1.0" encoding="utf-8"?>
<!-- Generator: Adobe Illustrator 21.1.0, SVG Export Plug-In . SVG Version: 6.00 Build 0)  -->
<svg version="1.1" id="Layer_1" xmlns="http://www.w3.org/2000/svg" xmlns:xlink="http://www.w3.org/1999/xlink" x="0px" y="0px"
	 viewBox="0 0 234 234" style="enable-background:new 0 0 234 234;" xml:space="preserve">
<style type="text/css">
	.st0{fill:#46166B;}
	.st1{fill:#FAA634;}
</style>
<g>
	<g>
		<path class="st0" d="M155.8,139.2l-26.2,30L75,69.9L35,229.1c-0.8-1.2,160.7-0.2,160.7-0.2L155.8,139.2z"/>
	</g>
	<circle class="st0" cx="153.7" cy="88.2" r="24"/>
	<path class="st1" d="M202.4,48.5L157.8,0.4l-115.2,0c-6,0-10.9,4.9-10.9,10.9v211.3c0,6,4.9,10.9,10.9,10.9h148.9
		c6,0,10.9-4.9,10.9-10.9v-161l0,0L202.4,48.5z M156.8,12.4L191,49.3h-28.9c-2.9,0-5.3-2.4-5.3-5.3V12.4z M192.2,219.4
		c0,2.9-2.4,5.3-5.3,5.3H47.1c-2.9,0-5.3-2.4-5.3-5.3V14.6c0-2.9,2.4-5.3,5.3-5.3h99.6v38c0,6,4.9,10.9,10.9,10.9h34.6V219.4z"/>
</g>
</svg>
