<?xml version="1.0" encoding="UTF-8"?>
<svg width="18px" height="18px" viewBox="0 0 18 18" version="1.1" xmlns="http://www.w3.org/2000/svg" xmlns:xlink="http://www.w3.org/1999/xlink">
    <title>Trending Icon</title>
    <defs>
        <path d="M18,9 C18,13.9705714 13.9705714,18 9,18 C4.02942857,18 0,13.9705714 0,9 C0,4.02942857 4.02942857,0 9,0 C13.9705714,0 18,4.02942857 18,9" id="path-1"></path>
        <path d="M12.0510499,0.61143221 L12.0837742,0.691164609 L13.3150467,4.07405804 C13.5133839,4.61898484 13.2324174,5.22151931 12.6874906,5.41985645 C12.1698102,5.60827672 11.6001388,5.36412553 11.3744165,4.87203274 L11.3416922,4.79230034 L10.995,3.842 L8.41856342,8.37333829 C8.15476661,8.83707239 7.58936234,9.02494532 7.10573035,8.82499101 L7.01610122,8.78292739 L3.71890433,7.04402156 L1.93072743,9.79825313 C1.63347037,10.2559889 1.03994459,10.4053556 0.565678265,10.1580301 L0.47825235,10.1069862 C0.0205166196,9.80972918 -0.12885011,9.2162034 0.118475405,8.74193708 L0.16951924,8.65451116 L2.48022697,5.09633329 C2.75860204,4.66767328 3.30138743,4.50536567 3.76475963,4.69895195 L3.85062735,4.73944187 L7.09594854,6.45072974 L9.123,2.886 L8.07332468,3.26823553 C7.55564422,3.45665581 6.98597284,3.21250461 6.7602506,2.72041183 L6.72752627,2.64067943 C6.539106,2.12299897 6.78325719,1.55332759 7.27534998,1.32760535 L7.35508238,1.29488102 L10.7379758,0.0636085078 C11.2556563,-0.12481177 11.8253277,0.119339425 12.0510499,0.61143221 Z" id="path-3"></path>
    </defs>
    <g id="Trending-Index" stroke="none" stroke-width="1" fill="none" fill-rule="evenodd">
        <g id="Trending-Index-Components" transform="translate(-184.000000, -302.000000)">
            <g id="Trending" transform="translate(120.000000, 294.000000)">
                <g id="Icons/Status/Trending" transform="translate(64.000000, 8.000000)">
                    <g id="Color/greyscale/#000000" transform="translate(-0.000060, 0.000000)">
                        <mask id="mask-2" fill="white">
                            <use xlink:href="#path-1"></use>
                        </mask>
                        <use id="Mask" fill="#000000" xlink:href="#path-1"></use>
                        <g id="Group" mask="url(#mask-2)">
                            <g transform="translate(0.000060, 0.000000)" id="Color/greyscale/#000000">
                                <rect id="Rectangle-Copy-18" fill="#FF9E1B" x="0" y="0" width="18" height="18"></rect>
                            </g>
                        </g>
                    </g>
                    <g id="Color/greyscale/white" transform="translate(2.400000, 3.600000)">
                        <mask id="mask-4" fill="white">
                            <use xlink:href="#path-3"></use>
                        </mask>
                        <use id="Mask" fill="#F0F0F1" fill-rule="nonzero" xlink:href="#path-3"></use>
                        <g id="Group" mask="url(#mask-4)">
                            <g transform="translate(-2.400000, -4.200000)" id="Color/greyscale/white">
                                <rect id="Rectangle-Copy-18" fill="#000000" x="0" y="0" width="18" height="18.6"></rect>
                            </g>
                        </g>
                    </g>
                </g>
            </g>
        </g>
    </g>
</svg>