<?xml version="1.0" encoding="UTF-8"?>
<svg width="280px" height="59px" viewBox="0 0 280 59" version="1.1" xmlns="http://www.w3.org/2000/svg" xmlns:xlink="http://www.w3.org/1999/xlink">
    <!-- Generator: Sketch 50 (54983) - http://www.bohemiancoding.com/sketch -->
    <title>jn-sig-h-FullColor-rgb Copy 6</title>
    <desc>Created with Sketch.</desc>
    <defs></defs>
    <g id="JAMA-integration" stroke="none" stroke-width="1" fill="none" fill-rule="evenodd">
        <g id="JAMA-Integration" transform="translate(-110.000000, -648.000000)" fill-rule="nonzero">
            <g id="jn-sig-h-FullColor-rgb-Copy-6" transform="translate(110.000000, 648.000000)">
                <path d="M29.0085481,1.16590437e-06 C17.2778362,-0.00334186988 6.70053106,7.18277181 2.20986374,18.2067551 C-2.28080358,29.2307384 0.199760637,41.9210329 8.49462688,50.358914 C16.7894931,58.7967952 29.2646979,61.3201278 40.101834,56.7520352 C50.9389701,52.1839425 58.0032852,41.42427 57.9999989,29.4913045 C58.0021549,21.6690524 54.9483997,14.1665496 49.5109805,8.63538186 C44.0735614,3.10421413 36.6982197,-0.00219209151 29.0085481,1.16590437e-06 Z M44.5687017,41.3275003 L37.6296045,41.3275003 L32.0718264,31.913096 L32.0718264,41.3275003 L30.7880121,41.3275003 L30.7880121,27.1604336 L38.3690165,40.0546133 L43.2848875,40.0546133 L43.2848875,18.7792168 L39.3115637,18.7792168 L39.3115637,33.7645679 L30.5442499,18.7709513 L26.8228137,18.7709513 L26.8228137,33.0620004 C26.8228137,38.7486643 23.9220436,41.7490408 18.4211433,41.7490408 C12.2864613,41.7490408 10.1088523,37.4427153 10.1088523,33.7645679 L10.1088523,31.003891 L16.0322738,31.003891 L16.0322738,32.7231149 C16.0322738,35.1201099 16.6579301,36.0293149 18.35614,36.0293149 C20.2818614,36.0293149 20.4199933,34.8142864 20.4199933,32.8057699 L20.4199933,17.5311263 L21.7038076,17.5311263 L21.7038076,32.7892389 C21.7038076,34.4423389 21.7038076,37.3269983 18.35614,37.3269983 C15.0084725,37.3269983 14.7403341,34.7151004 14.7403341,32.7231149 L14.7403341,32.3181055 L11.400792,32.3181055 L11.400792,33.7232404 C11.400792,38.6825403 15.0247233,40.3934988 18.4211433,40.3934988 C23.2070078,40.3934988 25.5389995,37.9799728 25.5389995,33.0206729 L25.5389995,17.4650023 L31.2755365,17.4650023 L38.019624,29.036702 L38.019624,17.4732678 L44.5687017,17.4732678 L44.5687017,41.3275003 Z" id="Shape" fill="#D71635"></path>
                <path d="M91.2268417,18 L82,42 L86.3450036,42 L88.62655,35.6524773 L98.2308534,35.6524773 L100.487236,42 L105,42 L95.7731583,18 L91.2268417,18 Z M89.750547,32.4535939 L93.3825675,22.128402 L93.4832239,22.128402 L97.0900802,32.4535939 L89.750547,32.4535939 Z" id="Shape" fill="#231F20"></path>
                <polygon id="Shape" fill="#231F20" points="264.653696 31.0802512 271.525292 24.6573622 268.902724 24.6573622 259.968872 33.0565248 259.968872 18 258 18 258 42 259.968872 42 259.968872 35.4096301 263.151751 32.5540823 269.525292 42 272 42"></polygon>
                <path d="M82.9610895,18 L79.0700389,18 L79.0700389,34.1172061 C79.0700389,37.0364566 78.4708171,38.6473595 75.9571984,38.6473595 C73.5836576,38.6473595 72.8910506,37.1018739 72.8910506,34.444293 L72.8910506,33.2258944 L69,33.2258944 L69,34.4770017 C69,38.7781942 70.9455253,42 75.6614786,42 C82.0661479,42 83,37.960477 83,33.8800681 L82.9610895,18 Z" id="Shape" fill="#231F20"></path>
                <path d="M249.882812,28.4052123 L249.828125,28.4052123 L249.828125,24.2617128 L248,24.2617128 L248,42 L249.976562,42 L249.976562,32.5829556 C249.908896,30.8317333 250.529582,29.1327443 251.681357,27.9164633 C252.833132,26.7001823 254.405475,26.0833195 256,26.2221702 L256,24.0220062 C253.286091,23.7780593 250.767078,25.5830313 249.882813,28.4052123 Z" id="Shape" fill="#231F20"></path>
                <path d="M190.608284,24 C185.251597,24 183,28.5 183,33 C183,37.8354545 185.251597,42 190.608284,42 C194.883879,42 197.070448,39.7745455 197.923941,35.9209091 L195.867429,35.9209091 C195.217148,38.5227273 193.583318,40.2654545 190.583898,40.2654545 C186.665957,40.2654545 185.032127,36.6163636 185.032127,33.5972727 L197.988969,33.5972727 C198.175925,28.7618182 195.997485,24 190.608284,24 Z M190.608284,25.7427273 C193.90033,25.7427273 195.8593,28.6636364 195.964971,31.7890909 L185.056513,31.7890909 C185.422295,28.6963636 187.210567,25.7427273 190.608284,25.7427273 Z" id="Shape" fill="#231F20"></path>
                <path d="M202.745894,19 L200.790338,19 L200.790338,24.2614932 L198,24.2614932 L198,26.0632586 L200.790338,26.0632586 L200.790338,38.0581096 C200.790338,41.0441339 201.656039,42 204.26087,42 C204.856039,42 205.41256,41.9323281 206,41.9323281 L206,40.0967267 C205.445617,40.1642601 204.888242,40.1981479 204.330435,40.1982346 C202.931401,40.0967267 202.745894,39.2762045 202.745894,37.8889298 L202.745894,26.0463406 L206,26.0463406 L206,24.2614932 L202.745894,24.2614932 L202.745894,19 Z" id="Shape" fill="#231F20"></path>
                <path d="M238.5,24 C233.670918,24 231,28.0909091 231,33 C231,37.9090909 233.670918,42 238.5,42 C243.329082,42 246,37.9090909 246,33 C246,28.0909091 243.329082,24 238.5,24 Z M238.5,40.2 C234.811224,40.2 232.936224,36.5509091 232.936224,32.9672727 C232.936224,29.3836364 234.811224,25.7427273 238.5,25.7427273 C242.188776,25.7427273 244.056122,29.3918182 244.056122,32.9672727 C244.056122,36.5427273 242.188776,40.2 238.5,40.2 Z" id="Shape" fill="#231F20"></path>
                <polygon id="Shape" fill="#231F20" points="118.149244 36.7913468 118.076639 36.7913468 111.703529 18 106 18 106 42 109.856134 42 109.856134 23.4766225 109.920672 23.4766225 116.334118 42 119.665882 42 126.079328 23.4766225 126.143866 23.4766225 126.143866 42 130 42 130 18 124.369076 18"></polygon>
                <polygon id="Shape" fill="#231F20" points="179.701817 38.3070482 179.626052 38.3070482 165.567568 18 163 18 163 42 165.298183 42 165.298183 21.6929518 165.365529 21.6929518 179.432432 42 182 42 182 18 179.701817 18"></polygon>
                <polygon id="Shape" fill="#231F20" points="229.782205 24 225.420818 38.5620473 225.346616 38.5620473 221.183099 24 218.833391 24 214.661628 38.5620473 214.587427 38.5620473 210.217795 24 208 24 213.499141 41 215.782892 41 219.954655 26.7006277 220.020611 26.7006277 224.225352 41 226.509103 41 232 24"></polygon>
                <path d="M141.240321,18 L132,42 L136.351351,42 L138.60263,35.6524773 L148.220964,35.6524773 L150.480643,42 L155,42 L145.759679,18 L141.240321,18 Z M139.75347,32.4535939 L143.399196,22.128402 L143.542001,22.128402 L147.154127,32.4535939 L139.75347,32.4535939 Z" id="Shape" fill="#231F20"></path>
                <path d="M276.264591,21.3994565 L275.36965,21.3994565 L275.36965,24 L274.902724,24 L274.902724,21.3994565 L274,21.3994565 L274,21 L276.264591,21 L276.264591,21.3994565 Z M280,24 L279.494163,24 L279.494163,21.4972826 L278.560311,24 L278.256809,24 L277.322957,21.4972826 L277.322957,24 L276.848249,24 L276.848249,21 L277.579767,21 L278.435798,23.2826087 L279.276265,21 L280,21 L280,24 Z" id="Shape" fill="#231F20"></path>
            </g>
        </g>
    </g>
</svg>