<?xml version="1.0" encoding="UTF-8"?>
<svg width="40px" height="40px" viewBox="0 0 40 40" version="1.1" xmlns="http://www.w3.org/2000/svg" xmlns:xlink="http://www.w3.org/1999/xlink">
    <title>fb</title>
    <defs>
        <polygon id="path-1" points="2.22053279e-15 0 39.9992187 0 39.9992187 39.7570218 2.22053279e-15 39.7570218"></polygon>
    </defs>
    <g id="fb" stroke="none" stroke-width="1" fill="none" fill-rule="evenodd">
        <g id="facebook" transform="translate(0.000781, 0.000000)">
            <g id="Group-3">
                <mask id="mask-2" fill="white">
                    <use xlink:href="#path-1"></use>
                </mask>
                <g id="Clip-2"></g>
                <path d="M39.9992187,19.9992187 C39.9992187,8.9530841 31.0445721,-0.00156256104 19.9984374,-0.00156256104 C8.95230282,-0.00156256104 -0.00234384156,8.9530841 -0.00234384156,19.9992187 C-0.00234384156,29.9821868 7.3116528,38.2565725 16.8733154,39.7570218 L16.8733154,25.7806946 L11.794992,25.7806946 L11.794992,19.9992187 L16.8733154,19.9992187 L16.8733154,15.5927966 C16.8733154,10.5801008 19.8592914,7.81124263 24.4279073,7.81124263 C26.6161569,7.81124263 28.9050354,8.20188289 28.9050354,8.20188289 L28.9050354,13.1239502 L26.3829837,13.1239502 C23.8983945,13.1239502 23.1235595,14.6656901 23.1235595,16.2473925 L23.1235595,19.9992187 L28.6706512,19.9992187 L27.7838978,25.7806946 L23.1235595,25.7806946 L23.1235595,39.7570218 C32.6852221,38.2565725 39.9992187,29.9821868 39.9992187,19.9992187" id="Fill-1" fill="#1877F2" mask="url(#mask-2)"></path>
            </g>
            <path d="M27.7838978,25.7806946 L28.6706512,19.9992187 L23.1235595,19.9992187 L23.1235595,16.2473925 C23.1235595,14.6656901 23.8983945,13.1239502 26.3829837,13.1239502 L28.9050354,13.1239502 L28.9050354,8.20188289 C28.9050354,8.20188289 26.6161569,7.81124263 24.4279073,7.81124263 C19.8592914,7.81124263 16.8733154,10.5801008 16.8733154,15.5927966 L16.8733154,19.9992187 L11.794992,19.9992187 L11.794992,25.7806946 L16.8733154,25.7806946 L16.8733154,39.7570218 C17.8915973,39.9167936 18.9352709,40 19.9984374,40 C21.061604,40 22.1052775,39.9167936 23.1235595,39.7570218 L23.1235595,25.7806946 L27.7838978,25.7806946" id="Fill-4" fill="#FFFFFF"></path>
        </g>
    </g>
</svg>