<?xml version="1.0" encoding="UTF-8"?>
<svg width="32px" height="32px" viewBox="0 0 32 32" version="1.1" xmlns="http://www.w3.org/2000/svg" xmlns:xlink="http://www.w3.org/1999/xlink">
    <title>OnHover_PrintIcon_AllDevices_ArticleHeader</title>
    <g id="OnHover_PrintIcon_AllDevices_ArticleHeader" stroke="none" stroke-width="1" fill="none" fill-rule="evenodd">
        <rect x="0" y="0" width="32" height="32"></rect>
        <g id="Printer-Icon" transform="translate(1.000000, 2.720548)" stroke="#FFFFFF" stroke-width="0.5">
            <rect id="Rectangle" fill="#46166B" x="0.25" y="5.44230769" width="29.5" height="13.9450519" rx="3.76999998"></rect>
            <path d="M23.0769231,0.25 C23.3265133,0.25 23.5524748,0.351166426 23.7160388,0.514730407 C23.8796028,0.678294388 23.9807692,0.904255924 23.9807692,1.15384614 L23.9807692,5.43970215 L6.01923077,5.43970215 L6.01923077,1.15384614 C6.01923077,0.904255924 6.12039719,0.678294388 6.28396118,0.514730407 C6.44752516,0.351166426 6.67348669,0.25 6.92307691,0.25 Z" id="Rectangle" fill="#46166B"></path>
            <path d="M23.9807692,16.1577159 L23.9807692,25.4050573 C23.9807692,25.6546475 23.8796028,25.8806091 23.7160388,26.0441731 C23.5524748,26.207737 23.3265133,26.3089035 23.0769231,26.3089035 L6.92307691,26.3089035 C6.67348669,26.3089035 6.44752516,26.207737 6.28396118,26.0441731 C6.12039719,25.8806091 6.01923077,25.6546475 6.01923077,25.4050573 L6.01923077,16.1577159 L23.9807692,16.1577159 Z" id="Rectangle" fill="#46166B"></path>
            <g id="Group" transform="translate(8.500000, 19.090664)" stroke-linecap="round">
                <line x1="0.5" y1="3.85989449" x2="9.5" y2="3.85989449" id="Line"></line>
                <line x1="0.5" y1="0.5" x2="12.5" y2="0.5" id="Line-2"></line>
            </g>
            <line x1="5.19230769" y1="16.1538462" x2="24.8076923" y2="16.1538462" id="Line-7" stroke-linecap="round"></line>
            <line x1="24.5" y1="8.19230769" x2="26.5" y2="8.19230769" id="Line-3" stroke-linecap="square"></line>
        </g>
    </g>
</svg>
