<?xml version="1.0" encoding="UTF-8"?>
<svg width="40px" height="40px" viewBox="0 0 40 40" version="1.1" xmlns="http://www.w3.org/2000/svg" xmlns:xlink="http://www.w3.org/1999/xlink">
    <title>Share</title>
    <g id="Share" stroke="none" stroke-width="1" fill="none" fill-rule="evenodd">
        <g id="Group" transform="translate(9.500000, 7.000000)" fill="#512D6D" fill-rule="nonzero">
            <path d="M21,23.6016664 C21,24.4300935 20.3284271,25.1016664 19.5,25.1016664 L1.5,25.1016664 C0.671572875,25.1016664 0,24.4300935 0,23.6016664 L0,11.6016664 C0,10.7732393 0.671572875,10.1016664 1.5,10.1016664 L4.5,10.1016664 C4.77614237,10.1016664 5,10.157559 5,10.4337014 C5,10.7098438 4.77614237,10.6837014 4.5,10.6837014 L1.5,10.6837014 C0.75,10.6837014 0.5,11.407559 0.5,11.6837014 L0.5,23.6837014 C0.5,23.9598438 0.75,24.5704164 1.5,24.5704164 L19.5,24.5704164 C20.25,24.5704164 20.5,23.7098438 20.5,23.4337014 L20.5,11.6837014 C20.5,11.407559 20.25,10.6837014 19.5,10.6837014 L16.5,10.6837014 C16.2238576,10.6837014 16,10.7098438 16,10.4337014 C16,10.157559 16.2238576,10.1016664 16.5,10.1016664 L19.5,10.1016664 C20.3284271,10.1016664 21,10.7732393 21,11.6016664 L21,23.6016664 Z" id="Path"></path>
            <path d="M6,5.07041639 C6.08425513,4.98616126 7.5009218,3.56949459 10.25,0.82041639 L10.25,13.8204164 C10.25,14.0965588 10.2241471,14.4883811 10.5002894,14.4883811 C10.7764318,14.4883811 10.75,14.0965588 10.75,13.8204164 C10.75,12.1910753 10.75,10.9410753 10.75,10.0704164 C10.75,8.09829754 10.75,5.01496421 10.75,0.82041639 L15,5.07041639 C15.1263827,5.1967991 15.6263827,4.94679909 15.5,4.82041639 L10.75,0.0704163896 C10.6562159,-0.0234721299 10.3437841,-0.0234721299 10.25,0.0704163896 L5.5,4.82041639 C5.3736173,4.94679909 5.8736173,5.19679909 6,5.07041639 Z" id="Path"></path>
        </g>
    </g>
</svg>