<?xml version="1.0" encoding="UTF-8"?>
<svg width="200px" height="200px" viewBox="0 0 200 200" version="1.1" xmlns="http://www.w3.org/2000/svg" xmlns:xlink="http://www.w3.org/1999/xlink">
    <title>Shared</title>
    <g id="Shared" stroke="none" stroke-width="1" fill="none" fill-rule="evenodd">
        <g id="Export" transform="translate(48.000000, 39.000000)">
            <path d="M53.3733977,47.5569334 L51.0097613,47.5569334 L51.0097613,2.61598549 L26.1915795,27.4517725 C24.3444381,29.3002243 23.1719495,26.8890118 25.0190909,25.04056 L48.6554545,1.38742951 C49.5421409,0.499126531 50.7453381,0 52,0 C53.2546619,0 54.4578591,0.499126531 55.3445455,1.38742951 L77.25,25 C78.444891,26.1957386 77.444891,28.6957386 76.25,27.5 L53.25,2.5 L53.3733977,47.5569334 Z M94.5454545,47.3099824 L53.3733977,47.5569334 L53.3733977,71.2100639 C53.3733977,73.8227166 51.0097613,73.8227166 51.0097613,71.2100639 L51.0097613,47.5569334 L9.45454545,47.3099824 C4.23294418,47.3099824 0,51.5459293 0,56.7712346 L0,113.538748 C0,118.764053 4.23294418,123 9.45454545,123 L94.5454545,123 C99.7670558,123 104,118.764053 104,113.538748 L104,56.7712346 C104,51.5459293 99.7670558,47.3099824 94.5454545,47.3099824 Z" id="Shape" fill="#512D6D" fill-rule="nonzero"></path>
            <rect id="Rectangle" x="36" y="47" width="32" height="32"></rect>
        </g>
    </g>
</svg>